<svg id="Group_173" data-name="Group 173" xmlns="http://www.w3.org/2000/svg" width="15.048" height="18.393" viewBox="0 0 15.048 18.393">
  <g id="delete">
    <path id="Path_1354" data-name="Path 1354" d="M16.54,7a.836.836,0,0,0-.836.836v9.356a1.605,1.605,0,0,1-1.68,1.512H7.352a1.605,1.605,0,0,1-1.68-1.512V7.836A.836.836,0,0,0,4,7.836v9.356a3.275,3.275,0,0,0,3.352,3.184h6.671a3.275,3.275,0,0,0,3.352-3.184V7.836A.836.836,0,0,0,16.54,7Z" transform="translate(-3.164 -1.984)" fill="#e43927"/>
    <path id="Path_1355" data-name="Path 1355" d="M17.212,3.508H13.868V1.836A.836.836,0,0,0,13.032,1H8.016a.836.836,0,0,0-.836.836V3.508H3.836a.836.836,0,0,0,0,1.672H17.212a.836.836,0,0,0,0-1.672Zm-8.36,0V2.672H12.2v.836Z" transform="translate(-3 -1)" fill="#e43927"/>
    <path id="Path_1356" data-name="Path 1356" d="M10.672,15.688V9.836A.836.836,0,0,0,9,9.836v5.852a.836.836,0,0,0,1.672,0Z" transform="translate(-3.984 -2.312)" fill="#e43927"/>
    <path id="Path_1357" data-name="Path 1357" d="M14.672,15.688V9.836a.836.836,0,0,0-1.672,0v5.852a.836.836,0,0,0,1.672,0Z" transform="translate(-4.64 -2.312)" fill="#e43927"/>
  </g>
</svg>
