<svg xmlns="http://www.w3.org/2000/svg" width="32" height="33" viewBox="0 0 32 33">
  <g id="Add" transform="translate(-0.44 0.085)">
    <ellipse id="Ellipse_28" data-name="Ellipse 28" cx="16" cy="16.5" rx="16" ry="16.5" transform="translate(0.44 -0.085)" fill="#e43927"/>
    <path id="add-2" data-name="add" d="M11,4.831H6.978V.805A.805.805,0,0,0,6.172,0H5.636a.805.805,0,0,0-.805.805V4.831H.805A.805.805,0,0,0,0,5.636v.537a.805.805,0,0,0,.805.805H4.831V11a.805.805,0,0,0,.805.805h.537A.805.805,0,0,0,6.978,11V6.978H11a.805.805,0,0,0,.805-.805V5.636A.805.805,0,0,0,11,4.831Zm0,0" transform="translate(10.965 10.965)" fill="#fff"/>
  </g>
</svg>
