<svg xmlns="http://www.w3.org/2000/svg" width="29.101" height="34.754" viewBox="0 0 29.101 34.754">
  <g id="address" transform="translate(-41.64)">
    <g id="Group_144" data-name="Group 144" transform="translate(41.64)">
      <g id="Group_143" data-name="Group 143">
        <path id="Path_1296" data-name="Path 1296" d="M66.944,26.362a27.994,27.994,0,0,0-6.057-1.224c.359-.544.726-1.116,1.094-1.708,3.337-5.363,5.028-9.607,5.028-12.612a10.819,10.819,0,1,0-21.637,0c0,3.005,1.692,7.249,5.028,12.612.368.592.735,1.163,1.094,1.708a27.99,27.99,0,0,0-6.057,1.224c-2.519.872-3.8,2.038-3.8,3.466,0,1.6,1.593,2.866,4.734,3.761a37.388,37.388,0,0,0,9.816,1.165,37.389,37.389,0,0,0,9.816-1.165c3.142-.895,4.734-2.16,4.734-3.761C70.741,28.4,69.464,27.234,66.944,26.362ZM47.555,10.819a8.636,8.636,0,1,1,17.272,0c0,2.552-1.621,6.508-4.688,11.441-1.509,2.428-3.033,4.544-3.948,5.77-.915-1.226-2.439-3.342-3.948-5.77C49.176,17.327,47.555,13.37,47.555,10.819ZM65.409,31.49a35.187,35.187,0,0,1-9.218,1.081,35.187,35.187,0,0,1-9.218-1.081c-2.6-.741-3.15-1.536-3.15-1.662s.414-.741,2.328-1.4A27.888,27.888,0,0,1,52.9,27.2c1.361,1.942,2.372,3.221,2.437,3.3a1.091,1.091,0,0,0,1.71,0c.065-.082,1.076-1.361,2.437-3.3a27.884,27.884,0,0,1,6.748,1.22c1.914.662,2.328,1.285,2.328,1.4S68.011,30.749,65.409,31.49Z" transform="translate(-41.64)" fill="#e43927"/>
      </g>
    </g>
    <g id="Group_146" data-name="Group 146" transform="translate(51.134 5.762)">
      <g id="Group_145" data-name="Group 145">
        <path id="Path_1297" data-name="Path 1297" d="M186.566,84.891a5.056,5.056,0,1,0,5.056,5.056A5.062,5.062,0,0,0,186.566,84.891Zm0,7.93a2.874,2.874,0,1,1,2.874-2.874A2.877,2.877,0,0,1,186.566,92.821Z" transform="translate(-181.51 -84.891)" fill="#e43927"/>
      </g>
    </g>
  </g>
</svg>
