<svg id="advice" xmlns="http://www.w3.org/2000/svg" width="57.52" height="62" viewBox="0 0 57.52 62">
  <path id="Path_1339" data-name="Path 1339" d="M45.628,21h-.992V18a2.975,2.975,0,1,0-5.95,0v3.184A2.994,2.994,0,0,0,36.7,24v2.343a4.989,4.989,0,0,0,1.453,3.535l.439.444L37.408,35.9a20.98,20.98,0,0,0-12.793-7.778l-.4-1.632A6.008,6.008,0,0,0,27.777,21a4,4,0,0,0,0-8v-.124a5.086,5.086,0,0,0,3.967-4.967A4.894,4.894,0,0,0,26.876,3a4.835,4.835,0,0,0-2.012.447A7.438,7.438,0,0,0,19.363,1,7.335,7.335,0,0,0,12.77,5.225a6.3,6.3,0,0,0-4.641,7.651L8.6,14.8a4,4,0,0,0,3.3,6.2,6.008,6.008,0,0,0,3.566,5.494l-.409,1.645A17.344,17.344,0,0,0,1,45.143V46a9,9,0,0,0,5.95,8.475V63H32.735V46.763l1.382,1.672A7.03,7.03,0,0,0,39.55,51a7.108,7.108,0,0,0,7.07-7.129V30.414l.531-.536A4.989,4.989,0,0,0,48.6,26.343V24a2.991,2.991,0,0,0-2.975-3Zm-3.967-4a1,1,0,0,1,.992,1v3.184a2.959,2.959,0,0,0-.992.6,2.943,2.943,0,0,0-.992-.6V18A1,1,0,0,1,41.661,17ZM26.319,39.728A1.964,1.964,0,0,0,24.8,39H23.9a18.3,18.3,0,0,0,.757-1.737L26.6,39.225C26.516,39.4,26.41,39.559,26.319,39.728ZM18.279,39l1.292-4h.544l1.292,4Zm3.658-4.815.723-.971.922.372a16.152,16.152,0,0,1-.837,3.1Zm-1.184-1.741L20.339,33h-.992l-.414-.556.909-.367Zm-3.726.769.723.971-.808,2.5a16.152,16.152,0,0,1-.837-3.1ZM16.868,41h3.967v2H16.868ZM23.81,30.118v.811c0,.2-.013.391-.021.587L22.261,30.9Zm-7.913,1.4c-.008-.195-.021-.39-.021-.586v-.811l1.548.781ZM14.163,34H11.73l-.487-2.455a15.02,15.02,0,0,1,2.65-1.073v.457A18.231,18.231,0,0,0,14.163,34Zm1.627,5H13.311l1.723-1.737A17.8,17.8,0,0,0,15.791,39Zm-.906,10a2,2,0,0,1,0,4H10.917V49ZM12.9,55h1.983a4,4,0,0,0,0-8H12.9V41h1.983v2a1.994,1.994,0,0,0,1.983,2h3.967a1.994,1.994,0,0,0,1.983-2V41H24.8V57H12.9ZM25.793,30.929v-.5a18.661,18.661,0,0,1,2.682.949L27.955,34H25.523A18.231,18.231,0,0,0,25.793,30.929ZM29.76,17a1.994,1.994,0,0,1-1.983,2V15A1.994,1.994,0,0,1,29.76,17ZM9.926,17a1.994,1.994,0,0,1,1.983-2v4A1.994,1.994,0,0,1,9.926,17Zm2.2-4h-.212a3.9,3.9,0,0,0-1.618.356l-.239-.966A4.308,4.308,0,0,1,12.1,7.612l-.177,1.247,1.964.282L14.1,7.6A5.356,5.356,0,0,1,19.363,3a5.449,5.449,0,0,1,3.883,1.645,4.862,4.862,0,0,0-.419.541l-.833,1.26,1.65,1.109.833-1.26a2.869,2.869,0,0,1,2.4-1.3A2.9,2.9,0,0,1,29.76,7.908,3.083,3.083,0,0,1,26.694,11H20.835a2.991,2.991,0,0,1-2.975-3H15.876a4.96,4.96,0,0,0,.237,1.447l-.06.01A4.938,4.938,0,0,0,12.121,13Zm1.771,8V14.389a2.984,2.984,0,0,1,2.486-2.959l.761-.128a4.912,4.912,0,0,0,3.7,1.7h4.959v8a3.988,3.988,0,0,1-3.967,4H17.859A3.988,3.988,0,0,1,13.892,21Zm3.967,6h3.967c.155,0,.307-.012.459-.023l.369,1.488-2.812,1.417-2.812-1.417.369-1.488c.152.011.3.023.459.023ZM2.983,46v-.857A15.4,15.4,0,0,1,9.44,32.65L10.1,36h3.377l-2.736,2.759.243.612c.073.185.168.363.251.545A2,2,0,0,0,10.917,41v6H9.926a1,1,0,0,1-.992-1V39H6.95v7a2.994,2.994,0,0,0,1.983,2.816v4.1A6.987,6.987,0,0,1,2.983,46ZM39.55,49a5.056,5.056,0,0,1-3.907-1.846l-2.907-3.517V39H30.752V61H8.934V54.941A8.789,8.789,0,0,0,9.926,55h.992v2A1.994,1.994,0,0,0,12.9,59H24.8a1.994,1.994,0,0,0,1.983-2V42.633a12.647,12.647,0,0,0,1.913-3.26l.243-.612L26.2,36h3.378l.731-3.689a18.966,18.966,0,0,1,6.531,6.255l-1.11,5.223,1.939.42L40.479,31h4.157V43.871A5.114,5.114,0,0,1,39.55,49Zm6.2-20.536L45.217,29H40.089l-.531-.536a3.026,3.026,0,0,1-.873-2.121V24a.992.992,0,1,1,1.983,0,2.991,2.991,0,0,0,2.975,3h2.9a3.033,3.033,0,0,1-.8,1.464ZM46.62,25H43.644a1,1,0,0,1,0-2h1.983a1,1,0,0,1,.992,1Z" transform="translate(-1 -1)" fill="#eb7e25"/>
  <path id="Path_1340" data-name="Path 1340" d="M18,23h1.983a3.988,3.988,0,0,0,3.967-4H21.967a1.994,1.994,0,0,1-1.983,2H18Z" transform="translate(-1.141 -1)" fill="#eb7e25"/>
  <circle id="Ellipse_113" data-name="Ellipse 113" cx="1" cy="1" r="1" transform="translate(15 14)" fill="#eb7e25"/>
  <circle id="Ellipse_114" data-name="Ellipse 114" cx="1" cy="1" r="1" transform="translate(21 14)" fill="#eb7e25"/>
  <path id="Path_1341" data-name="Path 1341" d="M47.646,2.707l-1.4-1.414L42.978,4.586,41.7,3.293l-1.4,1.414,2.685,2.707Z" transform="translate(-1.325 -1)" fill="#eb7e25"/>
  <path id="Path_1342" data-name="Path 1342" d="M49,5h9.884V7H49Z" transform="translate(-1.397 -1)" fill="#eb7e25"/>
  <path id="Path_1343" data-name="Path 1343" d="M47.646,8.707l-1.4-1.414-3.266,3.293L41.7,9.293l-1.4,1.414,2.685,2.707Z" transform="translate(-1.325 -1)" fill="#eb7e25"/>
  <path id="Path_1344" data-name="Path 1344" d="M49,11h9.884v2H49Z" transform="translate(-1.397 -1)" fill="#eb7e25"/>
  <path id="Path_1346" data-name="Path 1346" d="M49,17h9.917v2H49Z" transform="translate(-1.397 -1)" fill="#eb7e25"/>
</svg>
