<svg id="advice" xmlns="http://www.w3.org/2000/svg" width="24.121" height="26" viewBox="0 0 24.121 26">
  <path id="Path_1339" data-name="Path 1339" d="M19.715,9.387H19.3V8.129a1.248,1.248,0,1,0-2.5,0V9.464a1.256,1.256,0,0,0-.832,1.181v.983a2.092,2.092,0,0,0,.609,1.482l.184.186-.5,2.341A8.8,8.8,0,0,0,10.9,12.375l-.17-.684a2.52,2.52,0,0,0,1.5-2.3,1.677,1.677,0,0,0,0-3.355V5.98A2.133,2.133,0,0,0,13.893,3.9a2.052,2.052,0,0,0-2.041-2.059,2.028,2.028,0,0,0-.844.187A3.119,3.119,0,0,0,8.7,1,3.076,3.076,0,0,0,5.936,2.772,2.644,2.644,0,0,0,3.989,5.98l.2.8a1.678,1.678,0,0,0,1.386,2.6,2.52,2.52,0,0,0,1.5,2.3l-.171.69A7.273,7.273,0,0,0,1,19.512v.359a3.775,3.775,0,0,0,2.5,3.554V27H14.308V20.191l.58.7a2.948,2.948,0,0,0,2.278,1.076,2.981,2.981,0,0,0,2.965-2.99V13.335l.222-.225a2.092,2.092,0,0,0,.609-1.482v-.983A1.254,1.254,0,0,0,19.715,9.387ZM18.051,7.71a.418.418,0,0,1,.416.419V9.464a1.241,1.241,0,0,0-.416.25,1.234,1.234,0,0,0-.416-.25V8.129A.418.418,0,0,1,18.051,7.71Zm-6.434,9.531a.824.824,0,0,0-.636-.305H10.6a7.673,7.673,0,0,0,.317-.728l.816.823C11.7,17.1,11.656,17.17,11.618,17.241Zm-3.372-.305.542-1.677h.228l.542,1.677ZM9.78,14.916l.3-.407.387.156a6.774,6.774,0,0,1-.351,1.3Zm-.5-.73-.173.233H8.694l-.173-.233.381-.154Zm-1.562.322.3.407-.339,1.049a6.774,6.774,0,0,1-.351-1.3Zm-.067,3.266H9.318v.839H7.654Zm2.911-4.563v.34c0,.082-.005.164-.009.246l-.641-.258ZM7.247,13.8c0-.082-.009-.164-.009-.246v-.34l.649.328ZM6.52,14.839H5.5l-.2-1.03a6.3,6.3,0,0,1,1.111-.45v.192A7.645,7.645,0,0,0,6.52,14.839Zm.682,2.1H6.163l.722-.728A7.465,7.465,0,0,0,7.2,16.935Zm-.38,4.194a.839.839,0,0,1,0,1.677H5.159V21.129Zm-.832,2.516h.832a1.677,1.677,0,0,0,0-3.355H5.991V17.774h.832v.839a.836.836,0,0,0,.832.839H9.318a.836.836,0,0,0,.832-.839v-.839h.832v6.71H5.991ZM11.4,13.551v-.209a7.825,7.825,0,0,1,1.125.4l-.218,1.1h-1.02A7.645,7.645,0,0,0,11.4,13.551ZM13.061,7.71a.836.836,0,0,1-.832.839V6.871A.836.836,0,0,1,13.061,7.71Zm-8.318,0a.836.836,0,0,1,.832-.839V8.548A.836.836,0,0,1,4.743,7.71Zm.921-1.677H5.575a1.633,1.633,0,0,0-.678.149l-.1-.405a1.807,1.807,0,0,1,.857-2L5.579,4.3l.823.118.091-.646A2.246,2.246,0,0,1,8.7,1.839a2.285,2.285,0,0,1,1.628.69,2.039,2.039,0,0,0-.176.227L9.8,3.284l.692.465.349-.528a1.2,1.2,0,0,1,1.006-.543A1.216,1.216,0,0,1,13.061,3.9a1.293,1.293,0,0,1-1.286,1.3H9.318A1.254,1.254,0,0,1,8.07,3.935H7.238a2.08,2.08,0,0,0,.1.607l-.025,0A2.071,2.071,0,0,0,5.664,6.032Zm.743,3.355V6.615A1.251,1.251,0,0,1,7.449,5.374l.319-.054a2.06,2.06,0,0,0,1.55.712H11.4V9.387a1.672,1.672,0,0,1-1.664,1.677H8.07A1.672,1.672,0,0,1,6.407,9.387ZM8.07,11.9H9.734c.065,0,.129-.005.193-.01l.155.624L8.9,13.112l-1.179-.594.155-.624C7.941,11.9,8.005,11.9,8.07,11.9ZM1.832,19.871v-.359a6.458,6.458,0,0,1,2.707-5.239l.279,1.4H6.234L5.087,16.834l.1.257c.031.078.07.152.105.229a.837.837,0,0,0-.135.455V20.29H4.743a.418.418,0,0,1-.416-.419V16.935H3.5v2.935a1.256,1.256,0,0,0,.832,1.181v1.721a2.93,2.93,0,0,1-2.5-2.9Zm15.334,1.258a2.12,2.12,0,0,1-1.639-.774L14.308,18.88V16.935h-.832v9.226H4.327V23.62a3.685,3.685,0,0,0,.416.025h.416v.839a.836.836,0,0,0,.832.839h4.991a.836.836,0,0,0,.832-.839V18.459a5.3,5.3,0,0,0,.8-1.367l.1-.257-1.148-1.158h1.417l.307-1.547a7.954,7.954,0,0,1,2.739,2.623l-.465,2.19.813.176,1.177-5.539H19.3v5.4a2.145,2.145,0,0,1-2.133,2.151Zm2.6-8.612-.223.225H17.392l-.222-.225a1.269,1.269,0,0,1-.366-.889v-.983a.416.416,0,1,1,.832,0A1.254,1.254,0,0,0,18.883,11.9H20.1a1.272,1.272,0,0,1-.335.614Zm.366-1.453H18.883a.419.419,0,0,1,0-.839h.832a.418.418,0,0,1,.416.419Z" transform="translate(-1 -1)" fill="#eb7e25"/>
  <path id="Path_1340" data-name="Path 1340" d="M18,20.677h.832A1.672,1.672,0,0,0,20.5,19h-.832a.836.836,0,0,1-.832.839H18Z" transform="translate(-10.93 -11.452)" fill="#eb7e25"/>
  <ellipse id="Ellipse_113" data-name="Ellipse 113" cx="0.664" cy="0.332" rx="0.664" ry="0.332" transform="translate(5.943 6.087)" fill="#eb7e25"/>
  <ellipse id="Ellipse_114" data-name="Ellipse 114" cx="0.664" cy="0.332" rx="0.664" ry="0.332" transform="translate(8.598 6.087)" fill="#eb7e25"/>
  <path id="Path_1341" data-name="Path 1341" d="M43.376,1.886l-.588-.593-1.37,1.381-.538-.542-.588.593L41.419,3.86Z" transform="translate(-23.952 -1.17)" fill="#eb7e25"/>
  <path id="Path_1342" data-name="Path 1342" d="M49,5h4.145v.839H49Z" transform="translate(-29.037 -3.323)" fill="#eb7e25"/>
  <path id="Path_1343" data-name="Path 1343" d="M43.376,7.886l-.588-.593-1.37,1.381-.538-.542-.588.593L41.419,9.86Z" transform="translate(-23.952 -4.654)" fill="#eb7e25"/>
  <path id="Path_1344" data-name="Path 1344" d="M49,11h4.145v.839H49Z" transform="translate(-29.037 -6.806)" fill="#eb7e25"/>
  <path id="Path_1346" data-name="Path 1346" d="M49,17h4.159v.839H49Z" transform="translate(-29.037 -10.29)" fill="#eb7e25"/>
</svg>
