<svg xmlns="http://www.w3.org/2000/svg" width="36.485" height="36.604" viewBox="0 0 36.485 36.604">
  <g id="afternoon" transform="translate(0.143 0.25)">
    <path id="Path_1207" data-name="Path 1207" d="M241.107,0h2.108V6.4h-2.108Z" transform="translate(-224.062)" fill="#e43927" stroke="#e43927" stroke-width="0.5"/>
    <path id="Path_1208" data-name="Path 1208" d="M.107,241H6.5v2.108H.107Z" transform="translate(0 -224.062)" fill="#e43927" stroke="#e43927" stroke-width="0.5"/>
    <path id="Path_1209" data-name="Path 1209" d="M421.107,241h6.4v2.108h-6.4Z" transform="translate(-391.411 -224.062)" fill="#e43927" stroke="#e43927" stroke-width="0.5"/>
    <path id="Path_1210" data-name="Path 1210" d="M0,0H6.325V2.108H0Z" transform="translate(25.551 9.049) rotate(-45)" fill="#e43927" stroke="#e43927" stroke-width="0.5"/>
    <path id="Path_1211" data-name="Path 1211" d="M0,0H2.108V6.325H0Z" transform="translate(4.68 6.065) rotate(-45)" fill="#e43927" stroke="#e43927" stroke-width="0.5"/>
    <path id="Path_1212" data-name="Path 1212" d="M112.192,130.488a9.4,9.4,0,0,0-1.868-5.648,9.485,9.485,0,0,0-16.564,8.811H91.107v2.108H114.3v-2.108h-2.653A9.486,9.486,0,0,0,112.192,130.488Zm-16.868,0a7.377,7.377,0,0,1,13.307-4.391,7.363,7.363,0,0,1,.738,7.554H96.038A7.369,7.369,0,0,1,95.324,130.488Z" transform="translate(-84.604 -112.496)" fill="#e43927" stroke="#e43927" stroke-width="0.5"/>
    <path id="Path_1213" data-name="Path 1213" d="M191.517,367.592V361h-2.109v6.592l-2.417-2.417-1.491,1.491,4.962,4.962,4.962-4.962-1.491-1.491Z" transform="translate(-172.363 -335.628)" fill="#e43927" stroke="#e43927" stroke-width="0.5"/>
  </g>
</svg>
