<svg id="appointment" xmlns="http://www.w3.org/2000/svg" width="24" height="24" viewBox="0 0 24 24">
  <path id="Path_35" data-name="Path 35" d="M241.225,247.783a6.558,6.558,0,1,1,6.558-6.558A6.565,6.565,0,0,1,241.225,247.783Zm0-11.6a5.044,5.044,0,1,0,5.044,5.044A5.05,5.05,0,0,0,241.225,236.181Zm0,0" transform="translate(-223.783 -223.783)" fill="#ffffff"/>
  <path id="Path_36" data-name="Path 36" d="M359.854,304.721a.751.751,0,0,1-.535-.222l-1.765-1.765a.756.756,0,0,1-.222-.535v-2.774a.757.757,0,0,1,1.513,0v2.461l1.544,1.544a.757.757,0,0,1-.535,1.292Zm0,0" transform="translate(-340.605 -284.709)" fill="#ffffff"/>
  <path id="Path_37" data-name="Path 37" d="M90.376,10.088a5.044,5.044,0,1,1,5.044-5.044A5.05,5.05,0,0,1,90.376,10.088Zm0-8.575a3.531,3.531,0,1,0,3.531,3.531,3.711,3.711,0,0,0-.634-2.016,3.423,3.423,0,0,0-2.9-1.515Zm0,0" transform="translate(-81.357 0)" fill="#ffffff"/>
  <path id="Path_38" data-name="Path 38" d="M9.544,265.08H.757A.757.757,0,0,1,0,264.323C0,258.15,4.216,256,6.858,256h3.685a.757.757,0,1,1,0,1.513H6.858c-1.808,0-5.345,1.471-5.345,6.053h8.03a.757.757,0,0,1,0,1.513Zm0,0" transform="translate(0 -244.106)" fill="#ffffff"/>
</svg>
