<svg id="Appointment-id" xmlns="http://www.w3.org/2000/svg" width="36.689" height="32.997" viewBox="0 0 36.689 32.997">
  <g id="Group_124" data-name="Group 124" transform="translate(10.528 5.028)">
    <circle id="Ellipse_99" data-name="Ellipse 99" cx="2.828" cy="2.828" r="2.828" fill="none"/>
  </g>
  <g id="Group_126" data-name="Group 126" transform="translate(36.689 26.034)">
    <path id="Path_1276" data-name="Path 1276" d="M27.548,19.8Z" transform="translate(-27.548 -18.334)" fill="#4caf50"/>
  </g>
  <g id="Group_127" data-name="Group 127" transform="translate(6.285 21.212)">
    <path id="Path_1277" data-name="Path 1277" d="M12.249,15.857H5.178a1.178,1.178,0,1,1,0-2.357h7.071a1.178,1.178,0,1,1,0,2.357Z" transform="translate(-4 -13.5)" fill="#e43927"/>
  </g>
  <g id="Group_128" data-name="Group 128" transform="translate(6.285 25.926)">
    <path id="Path_1278" data-name="Path 1278" d="M16.46,18.857H5.178a1.178,1.178,0,1,1,0-2.357H16.46a1.178,1.178,0,0,1,0,2.357Z" transform="translate(-4 -16.5)" fill="#e43927"/>
  </g>
  <g id="Group_129" data-name="Group 129" transform="translate(10.213 4.714)">
    <path id="Path_1279" data-name="Path 1279" d="M9.643,9.285a3.143,3.143,0,1,1,3.143-3.143A3.146,3.146,0,0,1,9.643,9.285Zm0-3.928a.786.786,0,1,0,.786.786A.786.786,0,0,0,9.643,5.357Z" transform="translate(-6.5 -3)" fill="#e43927"/>
  </g>
  <g id="Group_130" data-name="Group 130" transform="translate(7.071 12.57)">
    <path id="Path_1280" data-name="Path 1280" d="M15.892,14.285a1.179,1.179,0,0,1-1.178-1.178v-.786a1.967,1.967,0,0,0-1.964-1.964H8.821a1.967,1.967,0,0,0-1.964,1.964v.786a1.178,1.178,0,0,1-2.357,0v-.786A4.325,4.325,0,0,1,8.821,8h3.928a4.325,4.325,0,0,1,4.321,4.321v.786A1.179,1.179,0,0,1,15.892,14.285Z" transform="translate(-4.5 -8)" fill="#e43927"/>
  </g>
  <g id="Group_131" data-name="Group 131">
    <path id="Path_1281" data-name="Path 1281" d="M24.527,33H4.321A4.325,4.325,0,0,1,0,28.676V4.321A4.325,4.325,0,0,1,4.321,0h18.07a4.325,4.325,0,0,1,4.321,4.321V25.777a1.178,1.178,0,0,1-2.357,0V4.321a1.967,1.967,0,0,0-1.964-1.964H4.321A1.967,1.967,0,0,0,2.357,4.321V28.676A1.967,1.967,0,0,0,4.321,30.64H24.527a1.178,1.178,0,0,1,0,2.357Z" fill="#e43927"/>
  </g>
</svg>
