<svg xmlns="http://www.w3.org/2000/svg" width="41" height="41" viewBox="0 0 41 41">
  <g id="appointment-date" transform="translate(0.5 0.5)">
    <g id="Group_113" data-name="Group 113">
      <g id="Group_112" data-name="Group 112">
        <circle id="Ellipse_83" data-name="Ellipse 83" cx="1.614" cy="1.614" r="1.614" transform="translate(28.539 14.818)" fill="#e43927" stroke="#fff" stroke-width="1"/>
        <path id="Path_1263" data-name="Path 1263" d="M33.75,3.125H31.719V1.563a1.563,1.563,0,1,0-3.125,0V3.125H21.484V1.563a1.563,1.563,0,0,0-3.125,0V3.125H11.328V1.563a1.562,1.562,0,1,0-3.125,0V3.125H6.25A6.257,6.257,0,0,0,0,9.375V33.75A6.257,6.257,0,0,0,6.25,40H18.2a1.563,1.563,0,0,0,0-3.125H6.25A3.129,3.129,0,0,1,3.125,33.75V9.375A3.129,3.129,0,0,1,6.25,6.25H8.2V7.813a1.562,1.562,0,1,0,3.125,0V6.25h7.031V7.813a1.563,1.563,0,0,0,3.125,0V6.25h7.109V7.813a1.563,1.563,0,0,0,3.125,0V6.25H33.75a3.129,3.129,0,0,1,3.125,3.125v8.906a1.563,1.563,0,0,0,3.125,0V9.375A6.257,6.257,0,0,0,33.75,3.125Z" fill="#e43927" stroke="#fff" stroke-width="1"/>
        <path id="Path_1264" data-name="Path 1264" d="M279.284,270a9.284,9.284,0,1,0,9.284,9.284A9.295,9.295,0,0,0,279.284,270Zm0,15.5a6.215,6.215,0,1,1,6.215-6.215A6.222,6.222,0,0,1,279.284,285.5Z" transform="translate(-248.569 -248.569)" fill="#e43927" stroke="#fff" stroke-width="1"/>
        <path id="Path_1265" data-name="Path 1265" d="M374.76,333.146h-.691v-1.611a1.535,1.535,0,1,0-3.069,0v3.146a1.535,1.535,0,0,0,1.535,1.535h2.225a1.535,1.535,0,1,0,0-3.069Z" transform="translate(-341.819 -304.132)" fill="#e43927" stroke="#fff" stroke-width="1"/>
        <circle id="Ellipse_84" data-name="Ellipse 84" cx="1.614" cy="1.614" r="1.614" transform="translate(21.953 14.818)" fill="#e43927" stroke="#fff" stroke-width="1"/>
        <circle id="Ellipse_85" data-name="Ellipse 85" cx="1.614" cy="1.614" r="1.614" transform="translate(15.367 21.404)" fill="#e43927" stroke="#fff" stroke-width="1"/>
        <circle id="Ellipse_86" data-name="Ellipse 86" cx="1.614" cy="1.614" r="1.614" transform="translate(7.683 14.818)" fill="#e43927" stroke="#fff" stroke-width="1"/>
        <circle id="Ellipse_87" data-name="Ellipse 87" cx="1.614" cy="1.614" r="1.614" transform="translate(7.683 21.404)" fill="#e43927" stroke="#fff" stroke-width="1"/>
        <circle id="Ellipse_88" data-name="Ellipse 88" cx="1.614" cy="1.614" r="1.614" transform="translate(7.683 29.088)" fill="#e43927" stroke="#fff" stroke-width="1"/>
        <circle id="Ellipse_89" data-name="Ellipse 89" cx="1.614" cy="1.614" r="1.614" transform="translate(15.367 29.088)" fill="#e43927" stroke="#fff" stroke-width="1"/>
        <circle id="Ellipse_90" data-name="Ellipse 90" cx="1.614" cy="1.614" r="1.614" transform="translate(15.367 14.818)" fill="#e43927" stroke="#fff" stroke-width="1"/>
      </g>
    </g>
  </g>
</svg>
