<svg xmlns="http://www.w3.org/2000/svg" width="17.767" height="16.816" viewBox="0 0 17.767 16.816">
  <path id="attachment" d="M16.1,15.367a5.686,5.686,0,0,0-8.032,0L1.187,22.252A4.057,4.057,0,0,0,6.924,27.99l6.311-6.311a2.434,2.434,0,1,0-3.442-3.442L5.666,22.363a.811.811,0,1,0,1.147,1.147l4.127-4.127a.811.811,0,1,1,1.147,1.147L5.777,26.842A2.434,2.434,0,0,1,2.334,23.4l6.885-6.885a4.057,4.057,0,1,1,5.737,5.737L8.072,29.137a.811.811,0,0,0,1.148,1.147L16.1,23.4a5.68,5.68,0,0,0,0-8.032Z" transform="translate(-0.001 -13.706)" fill="#e43927"/>
</svg>
