<svg xmlns="http://www.w3.org/2000/svg" width="24.859" height="32.141" viewBox="0 0 24.859 32.141">
  <path id="blood-group" d="M11.112,24.357V21.218H7.973a1.256,1.256,0,1,1,0-2.511h3.139V15.568a1.256,1.256,0,1,1,2.511,0v3.139h3.139a1.256,1.256,0,1,1,0,2.511H13.623v3.139a1.256,1.256,0,1,1-2.511,0ZM19.027,7.349c-2.8-3.8-5.555-6.814-5.671-6.941a1.256,1.256,0,0,0-1.852,0c-.116.127-2.871,3.145-5.671,6.941C1.963,12.594,0,16.628,0,19.338v.343A12.427,12.427,0,0,0,18.507,30.552a1.256,1.256,0,0,0-1.231-2.188A9.916,9.916,0,0,1,2.511,19.681v-.343c0-2.1,1.893-5.821,5.329-10.482C9.6,6.464,11.386,4.35,12.43,3.149c1.04,1.2,2.815,3.3,4.576,5.69,3.445,4.669,5.342,8.4,5.342,10.5v.343a9.859,9.859,0,0,1-1.12,4.6,1.256,1.256,0,0,0,2.227,1.16,12.518,12.518,0,0,0,1.4-5.757v-.343c0-2.71-1.962-6.744-5.832-11.99Zm0,0" transform="translate(0 0)" fill="#e43927"/>
</svg>
