<svg id="calendar2" xmlns="http://www.w3.org/2000/svg" width="22.743" height="22" viewBox="0 0 22.743 22">
  <g id="Group_75" data-name="Group 75">
    <g id="Group_74" data-name="Group 74">
      <circle id="Ellipse_64" data-name="Ellipse 64" cx="0.794" cy="0.794" r="0.794" transform="translate(16.391 8.155)" fill="#e43927"/>
      <path id="Path_1202" data-name="Path 1202" d="M19.189,1.719H18.034V.859a.889.889,0,0,0-1.777,0v.859H12.215V.859a.889.889,0,0,0-1.777,0v.859h-4V.859a.889.889,0,0,0-1.777,0v.859H3.554A3.5,3.5,0,0,0,0,5.156V18.563A3.5,3.5,0,0,0,3.554,22h6.8a.86.86,0,1,0,0-1.719h-6.8a1.75,1.75,0,0,1-1.777-1.719V5.156A1.75,1.75,0,0,1,3.554,3.438h1.11V4.3a.889.889,0,0,0,1.777,0V3.438h4V4.3a.889.889,0,0,0,1.777,0V3.438h4.042V4.3a.889.889,0,0,0,1.777,0V3.438h1.155a1.75,1.75,0,0,1,1.777,1.719v4.9a.889.889,0,0,0,1.777,0v-4.9A3.5,3.5,0,0,0,19.189,1.719Z" fill="#e43927"/>
      <path id="Path_1203" data-name="Path 1203" d="M275.378,270a5.378,5.378,0,1,0,5.378,5.378A5.384,5.384,0,0,0,275.378,270Zm0,8.978a3.6,3.6,0,1,1,3.6-3.6A3.6,3.6,0,0,1,275.378,278.978Z" transform="translate(-258.013 -258.756)" fill="#e43927"/>
      <path id="Path_1204" data-name="Path 1204" d="M373.178,331.822h-.4v-.933a.889.889,0,1,0-1.778,0v1.822a.889.889,0,0,0,.889.889h1.289a.889.889,0,1,0,0-1.778Z" transform="translate(-354.524 -315.912)" fill="#e43927"/>
      <circle id="Ellipse_65" data-name="Ellipse 65" cx="0.794" cy="0.794" r="0.794" transform="translate(12.421 8.155)" fill="#e43927"/>
      <circle id="Ellipse_66" data-name="Ellipse 66" cx="0.794" cy="0.794" r="0.794" transform="translate(8.452 11.985)" fill="#e43927"/>
      <circle id="Ellipse_67" data-name="Ellipse 67" cx="0.794" cy="0.794" r="0.794" transform="translate(4.483 8.155)" fill="#e43927"/>
      <circle id="Ellipse_68" data-name="Ellipse 68" cx="0.794" cy="0.794" r="0.794" transform="translate(4.483 11.985)" fill="#e43927"/>
      <circle id="Ellipse_69" data-name="Ellipse 69" cx="0.794" cy="0.794" r="0.794" transform="translate(4.483 15.815)" fill="#e43927"/>
      <circle id="Ellipse_70" data-name="Ellipse 70" cx="0.794" cy="0.794" r="0.794" transform="translate(8.452 15.815)" fill="#e43927"/>
      <circle id="Ellipse_71" data-name="Ellipse 71" cx="0.794" cy="0.794" r="0.794" transform="translate(8.452 8.155)" fill="#e43927"/>
    </g>
  </g>
</svg>
