<svg xmlns="http://www.w3.org/2000/svg" width="20.159" height="22.968" viewBox="0 0 20.159 22.968">
  <g id="change-password" transform="translate(-31.75 -6.75)">
    <g id="Group_176" data-name="Group 176" transform="translate(32)">
      <g id="Group_175" data-name="Group 175" transform="translate(0 7)">
        <path id="Path_1370" data-name="Path 1370" d="M50.782,15.886a.878.878,0,0,0,.878-.878V11.761A3.515,3.515,0,0,0,48.149,8.25H47.094v-3.1a5.267,5.267,0,0,0-10.532,0v3.1H35.511A3.515,3.515,0,0,0,32,11.761v7.2a3.515,3.515,0,0,0,3.511,3.511H48.149a3.515,3.515,0,0,0,3.511-3.511.878.878,0,1,0-1.755,0,1.757,1.757,0,0,1-1.755,1.755H35.511a1.757,1.757,0,0,1-1.755-1.755v-7.2a1.757,1.757,0,0,1,1.755-1.755H48.149A1.757,1.757,0,0,1,49.9,11.761v3.247A.878.878,0,0,0,50.782,15.886ZM45.339,8.25H38.317v-3.1a3.512,3.512,0,0,1,7.021,0Z" transform="translate(-32)" fill="#e43927" stroke="#fff" stroke-width="0.5"/>
        <ellipse id="Ellipse_116" data-name="Ellipse 116" cy="1" ry="1" transform="translate(7.939 14.468)"/>
        <circle id="Ellipse_117" data-name="Ellipse 117" cx="1" cy="1" r="1" transform="translate(3.939 14.468)" fill="#e43927"/>
        <circle id="Ellipse_119" data-name="Ellipse 119" cx="1" cy="1" r="1" transform="translate(6.939 14.468)" fill="#e43927"/>
        <circle id="Ellipse_120" data-name="Ellipse 120" cx="1" cy="1" r="1" transform="translate(9.939 14.468)" fill="#e43927"/>
        <circle id="Ellipse_118" data-name="Ellipse 118" cx="1" cy="1" r="1" transform="translate(12.939 14.468)" fill="#e43927"/>
      </g>
    </g>
  </g>
</svg>
