<svg xmlns="http://www.w3.org/2000/svg" width="19.633" height="19.631" viewBox="0 0 19.633 19.631">
  <g id="close" transform="translate(0 0)">
    <path id="Path_1254" data-name="Path 1254" d="M11.979,9.832l7.34-7.341a1.076,1.076,0,0,0,0-1.518L18.676.329a1.076,1.076,0,0,0-1.519,0L9.817,7.67,2.476.329a1.076,1.076,0,0,0-1.518,0L.314.973a1.075,1.075,0,0,0,0,1.518L7.655,9.832.314,17.172a1.077,1.077,0,0,0,0,1.519l.643.643a1.076,1.076,0,0,0,1.518,0l7.341-7.34,7.34,7.34a1.065,1.065,0,0,0,.759.313h0a1.065,1.065,0,0,0,.759-.313l.643-.643a1.077,1.077,0,0,0,0-1.519Z" transform="translate(0 -0.016)" fill="#fff"/>
  </g>
</svg>
