<svg xmlns="http://www.w3.org/2000/svg" width="65.984" height="76" viewBox="0 0 65.984 76">
  <g id="congratulations" transform="translate(0.5 0.5)">
    <path id="Shape" d="M21.5,38.677a12.122,12.122,0,0,1-5.457,1.84,4.99,4.99,0,0,0-4.8-3.673H5a5,5,0,0,0-5,5V66.836a5,5,0,0,0,5,5h6.248a5,5,0,0,0,4.814-3.724,8.164,8.164,0,0,1,3.062.772c.482.229.944.5,1.406.767a17.208,17.208,0,0,0,2.151,1.112,16.342,16.342,0,0,0,6.063,1.072H51.237a5,5,0,0,0,4.141-7.794,4.976,4.976,0,0,0,2.5-7.5,4.965,4.965,0,0,0,.9-8.983,4.94,4.94,0,0,0,1.207-3.218,5,5,0,0,0-5-5H39.2c1.955-3.722,5.506-12.041,2.049-18.092-1.521-2.658-4.7-4.738-8.074-3.018-3.522,1.79-2.733,5.325-2.353,7.022.969,4.354-2.167,8.87-9.32,13.422ZM11.247,69.336H5a2.5,2.5,0,0,1-2.5-2.5V41.843a2.5,2.5,0,0,1,2.5-2.5h6.248a2.5,2.5,0,0,1,2.5,2.5V66.836A2.5,2.5,0,0,1,11.247,69.336ZM33.262,24.712c-.565-2.528-.311-3.56,1.047-4.249,2.2-1.125,4.038.75,4.771,2.031C42.816,29.034,36.067,39.816,36,39.924a1.25,1.25,0,0,0,1.055,1.918H54.986a2.5,2.5,0,1,1,0,5h-7.5a1.25,1.25,0,0,0,0,2.5h8.748a2.5,2.5,0,0,1,0,5H47.488a1.25,1.25,0,0,0,0,2.5h6.248a2.5,2.5,0,1,1,0,5H47.488a1.25,1.25,0,0,0,0,2.5h3.749a2.5,2.5,0,0,1,0,5H28.743a13.81,13.81,0,0,1-5.124-.89,14.957,14.957,0,0,1-1.836-.957c-.52-.3-1.042-.6-1.583-.861a10.686,10.686,0,0,0-3.954-1v-22.6a14.646,14.646,0,0,0,6.6-2.249C30.979,35.61,34.484,30.2,33.262,24.712Z" transform="translate(0 3.163)" fill="#e43927" stroke="#fff" stroke-width="1"/>
    <path id="Shape-2" data-name="Shape" d="M40.259,2.217v.036c0,.46-.114,11.247-10.009,11.247a1.25,1.25,0,1,0,0,2.5c9.856,0,10.008,10.79,10.009,11.247a1.25,1.25,0,0,0,2.5.034v-.034c0-.46.114-11.247,10.01-11.247a1.25,1.25,0,0,0,0-2.5c-9.858,0-10.008-10.79-10.01-11.247a1.25,1.25,0,1,0-2.5-.034ZM47.07,14.75a11.872,11.872,0,0,0-5.562,6.293,11.865,11.865,0,0,0-5.562-6.293,11.865,11.865,0,0,0,5.562-6.293A11.872,11.872,0,0,0,47.07,14.75Z" transform="translate(7.241 -0.986)" fill="#e43927" stroke="#fff" stroke-width="1"/>
    <path id="Shape-3" data-name="Shape" d="M15,14.25v-.007a1.25,1.25,0,1,0-2.5.007c0,.306-.1,7.5-6.248,7.5a1.25,1.25,0,0,0,0,2.5c6.143,0,6.248,7.194,6.248,7.5v.007a1.25,1.25,0,0,0,2.5-.007c0-.306.1-7.5,6.248-7.5a1.25,1.25,0,0,0,0-2.5C15.1,21.749,15,14.554,15,14.25ZM16.677,23a8.4,8.4,0,0,0-2.929,3.39A8.4,8.4,0,0,0,10.819,23a8.392,8.392,0,0,0,2.929-3.39A8.392,8.392,0,0,0,16.677,23Z" transform="translate(1.248 2.013)" fill="#e43927" stroke="#fff" stroke-width="1"/>
    <path id="Shape-4" data-name="Shape" d="M47.25,22A1.25,1.25,0,0,0,46,23.25v2.5a1.25,1.25,0,1,0,2.5,0v-2.5A1.25,1.25,0,0,0,47.25,22Z" transform="translate(11.486 4.26)" fill="#e43927" stroke="#fff" stroke-width="1"/>
    <path id="Shape-5" data-name="Shape" d="M47.25,33a1.25,1.25,0,0,0,1.25-1.25v-2.5a1.25,1.25,0,1,0-2.5,0v2.5A1.25,1.25,0,0,0,47.25,33Z" transform="translate(11.486 5.759)" fill="#e43927" stroke="#fff" stroke-width="1"/>
    <path id="Shape-6" data-name="Shape" d="M49.25,28.5h2.5a1.25,1.25,0,0,0,0-2.5h-2.5a1.25,1.25,0,1,0,0,2.5Z" transform="translate(11.985 5.259)" fill="#e43927" stroke="#fff" stroke-width="1"/>
    <path id="Shape-7" data-name="Shape" d="M45.749,28.5a1.25,1.25,0,1,0,0-2.5h-2.5a1.25,1.25,0,0,0,0,2.5Z" transform="translate(10.487 5.259)" fill="#e43927" stroke="#fff" stroke-width="1"/>
    <path id="Shape-8" data-name="Shape" d="M21.869,10.636l1.875,1.875a1.25,1.25,0,0,0,1.767-1.767L23.636,8.869a1.25,1.25,0,1,0-1.767,1.767Z" transform="translate(5.365 0.887)" fill="#e43927" stroke="#fff" stroke-width="1"/>
    <path id="Shape-9" data-name="Shape" d="M19.238,8A1.25,1.25,0,0,0,21,6.238L19.13,4.363A1.25,1.25,0,0,0,17.363,6.13Z" transform="translate(4.248 -0.231)" fill="#e43927" stroke="#fff" stroke-width="1"/>
    <path id="Shape-10" data-name="Shape" d="M17.366,12.511a1.25,1.25,0,0,0,1.767,0l1.875-1.875a1.25,1.25,0,1,0-1.767-1.767l-1.875,1.875a1.25,1.25,0,0,0,0,1.767Z" transform="translate(4.245 0.887)" fill="#e43927" stroke="#fff" stroke-width="1"/>
    <path id="Shape-11" data-name="Shape" d="M22.75,8.377a1.25,1.25,0,0,0,.884-.366l1.875-1.875a1.25,1.25,0,1,0-1.767-1.767L21.866,6.244a1.25,1.25,0,0,0,.884,2.133Z" transform="translate(5.368 -0.237)" fill="#e43927" stroke="#fff" stroke-width="1"/>
  </g>
</svg>
