<svg xmlns="http://www.w3.org/2000/svg" width="36.773" height="40" viewBox="0 0 36.773 40">
  <g id="consultaion-fees" transform="translate(-9.148 2)">
    <g id="Group_116" data-name="Group 116" transform="translate(9.148 20.109)">
      <g id="Group_115" data-name="Group 115" transform="translate(0)">
        <path id="Path_1266" data-name="Path 1266" d="M45.321,266.572a.437.437,0,0,0-.062-.1,2.858,2.858,0,0,0-4.018-.416c-1.54,1.255-3.78,3.064-5.235,4.242a6.084,6.084,0,0,1-3.6,1.339l-3.941.131a.445.445,0,0,1-.393-.208l-.439-.754a.412.412,0,0,1-.023-.4.429.429,0,0,1,.316-.246l4.072-.77a2.836,2.836,0,0,0,2.271-3.095,2.784,2.784,0,0,0-2.771-2.479h-.139l-5.442-.223a12.451,12.451,0,0,0-6.212,1.393l-2.848,1.378A2.4,2.4,0,0,0,14.691,265H11.542a2.382,2.382,0,0,0-2.394,2.371V279.1a2.393,2.393,0,0,0,2.394,2.379h3.148a2.387,2.387,0,0,0,2.386-2.379V278.3l3.025-.554a11.88,11.88,0,0,1,2.633-.154l8.275.385a11.946,11.946,0,0,0,8.183-2.764l5.735-4.757.008-.008A2.817,2.817,0,0,0,45.321,266.572ZM15.537,279.1a.841.841,0,0,1-.839.839H11.527a.841.841,0,0,1-.839-.839V267.38a.841.841,0,0,1,.839-.839H14.7a.841.841,0,0,1,.839.839Zm28.405-9.823-5.727,4.75a10.464,10.464,0,0,1-7.136,2.409l-8.275-.385a13.625,13.625,0,0,0-2.941.169.028.028,0,0,0-.023.008l-2.764.508v-8.776l3.295-1.593a10.964,10.964,0,0,1,5.481-1.239l5.481.223H31.5a1.269,1.269,0,0,1,1.247,1.108,1.288,1.288,0,0,1-1.024,1.409l-4.072.77a1.977,1.977,0,0,0-1.57,2.309,2.019,2.019,0,0,0,.239.631l.439.747a1.981,1.981,0,0,0,1.771.97l3.941-.131a7.727,7.727,0,0,0,4.519-1.678c1.455-1.178,3.7-2.987,5.242-4.242a1.337,1.337,0,0,1,1.817.162.642.642,0,0,0,.062.092A1.274,1.274,0,0,1,43.943,269.274Z" transform="translate(-9.148 -263.584)" fill="#e43927"/>
      </g>
    </g>
    <g id="Group_118" data-name="Group 118" transform="translate(23.582 -2)">
      <g id="Group_117" data-name="Group 117">
        <path id="Path_1267" data-name="Path 1267" d="M206.717,0a10.073,10.073,0,1,0,10.069,10.077A10.083,10.083,0,0,0,206.717,0Zm.008,18.606a8.535,8.535,0,0,1-8.537-8.529v-.008a8.533,8.533,0,1,1,8.537,8.537Z" transform="translate(-196.648)" fill="#e43927"/>
      </g>
    </g>
    <g id="Group_120" data-name="Group 120" transform="translate(29.871 3.081)">
      <g id="Group_119" data-name="Group 119">
        <path id="Path_1268" data-name="Path 1268" d="M285.136,68.617H284.1a3.232,3.232,0,0,0-.447-1.078h1.478a.77.77,0,0,0,0-1.54h-6.02a.77.77,0,0,0,0,1.54h1.724a1.84,1.84,0,0,1,1.64,1.078h-3.364a.77.77,0,0,0,0,1.54h3.364a2.452,2.452,0,0,1-.354.485,1.8,1.8,0,0,1-1.286.516h-1.724a.775.775,0,0,0-.77.785.8.8,0,0,0,.239.554l4.3,4.072a.768.768,0,1,0,1.055-1.116l-2.9-2.748a3.318,3.318,0,0,0,2.163-.962,3.447,3.447,0,0,0,.9-1.586h1.032a.77.77,0,0,0,0-1.54Z" transform="translate(-278.346 -66)" fill="#e43927"/>
      </g>
    </g>
  </g>
</svg>
