<svg id="svg" version="1.1" xmlns="http://www.w3.org/2000/svg" xmlns:xlink="http://www.w3.org/1999/xlink" width="400" height="400" viewBox="0, 0, 400,400"><g id="svgg"><path id="path0" d="M146.875 1.256 C 124.510 7.261,110.994 26.086,110.951 51.292 L 110.938 59.225 90.039 59.523 L 69.141 59.820 62.465 62.184 C 46.662 67.778,35.254 80.049,31.231 95.778 C 29.158 103.881,28.805 353.127,30.852 362.790 C 34.533 380.163,49.922 395.629,67.031 399.148 C 74.175 400.618,246.869 400.314,252.766 398.821 C 275.091 393.170,289.006 373.952,289.049 348.708 L 289.063 340.775 309.961 340.450 C 330.048 340.137,331.102 340.044,337.109 338.049 C 352.662 332.882,364.739 319.979,368.769 304.222 C 370.824 296.189,371.221 129.761,369.195 125.938 C 368.580 124.777,340.182 95.967,306.088 61.914 L 244.098 0.000 197.635 0.051 C 159.243 0.094,150.425 0.303,146.875 1.256 M232.813 54.953 C 232.813 92.339,232.917 95.472,234.356 101.097 C 238.395 116.889,250.327 129.653,266.016 134.963 L 272.266 137.078 313.867 137.333 L 355.469 137.588 355.463 214.692 C 355.456 306.739,355.608 305.202,345.493 315.135 C 336.523 323.943,332.553 325.000,308.455 325.000 L 289.063 325.000 289.063 256.602 C 289.063 198.666,288.891 187.881,287.941 186.094 C 286.189 182.800,163.957 61.115,161.473 60.192 C 160.195 59.717,152.255 59.375,142.527 59.375 L 125.781 59.375 125.807 54.492 C 125.896 37.477,131.477 26.063,143.014 19.302 C 150.199 15.091,151.822 14.951,193.945 14.895 L 232.813 14.844 232.813 54.953 M309.604 121.688 C 268.790 121.931,267.490 121.689,257.632 112.010 C 248.489 103.031,247.667 98.532,247.661 57.424 L 247.656 25.395 295.706 73.440 L 343.755 121.484 309.604 121.688 M151.563 115.461 C 151.563 166.272,152.204 169.363,165.540 182.847 C 178.711 196.163,182.168 196.875,233.663 196.875 L 274.280 196.875 274.054 277.539 L 273.828 358.203 272.056 362.582 C 268.172 372.184,261.196 379.415,252.344 383.017 L 248.047 384.766 159.375 384.766 L 70.703 384.766 66.138 382.924 C 57.436 379.415,49.471 371.042,46.338 362.109 C 44.667 357.348,43.714 114.011,45.324 103.516 C 47.300 90.640,55.201 81.191,67.969 76.432 C 71.082 75.271,76.066 75.114,111.523 75.061 L 151.563 75.000 151.563 115.461 M229.885 181.848 C 188.938 182.108,185.223 181.395,175.845 171.478 C 166.988 162.114,166.406 158.822,166.406 118.060 L 166.406 85.552 214.456 133.596 L 262.505 181.641 229.885 181.848 " stroke="none" fill="#E43927" fill-rule="evenodd"></path></g></svg>