<svg xmlns="http://www.w3.org/2000/svg" width="28" height="28" viewBox="0 0 28 28">
  <path id="create-account" d="M27.958,26.92l-1.849-5.548a5.24,5.24,0,0,0-3.815-3.441l-4.837-1.075V14.78a6.975,6.975,0,0,0,3.515-6.052V5.336a3.848,3.848,0,0,0-.765-2.295l0,0A7.631,7.631,0,0,0,14,0,7.631,7.631,0,0,0,7.8,3.037l0,0a3.848,3.848,0,0,0-.765,2.295V8.728a6.975,6.975,0,0,0,3.515,6.052v2.076L5.707,17.931a5.24,5.24,0,0,0-3.815,3.441L.042,26.92a.82.82,0,1,0,1.556.519l1.849-5.548a3.591,3.591,0,0,1,2.615-2.358l.967-.215v3.661a2.578,2.578,0,1,0,1.641,0V18.953l2.293-.51L13.3,22.33a.82.82,0,0,0,1.407,0l2.332-3.886,2.295.51v2.232a3.459,3.459,0,0,0-2.636,3.358V27.18a.82.82,0,0,0,.82.82h.879a.82.82,0,1,0,0-1.641h-.058V24.544a1.816,1.816,0,0,1,3.631,0v1.816h-.058a.82.82,0,1,0,0,1.641h.879a.82.82,0,0,0,.82-.82V24.544a3.462,3.462,0,0,0-2.636-3.357V19.318l.967.215a3.591,3.591,0,0,1,2.615,2.358L26.4,27.439a.82.82,0,0,0,1.556-.519Zm-19.171-1.5a.937.937,0,1,1-.937-.937A.938.938,0,0,1,8.786,25.422ZM8.67,5.336A2.2,2.2,0,0,1,9.1,4.029l0,0a5.986,5.986,0,0,1,4.9-2.385,5.985,5.985,0,0,1,4.885,2.385l0,0a2.2,2.2,0,0,1,.434,1.307V6.748L18.2,5.618a.9.9,0,0,0-.686-.347.82.82,0,0,0-.367.087,7.072,7.072,0,0,1-6.3,0,.82.82,0,0,0-.947.154L8.67,6.746V5.336Zm0,3.392V8.554a2.926,2.926,0,0,0,1.26-.745l.734-.734a8.735,8.735,0,0,0,6.674,0l.734.734a2.925,2.925,0,0,0,1.26.745v.174a5.33,5.33,0,0,1-10.66,0Zm7.146,8.559L14,20.313l-1.816-3.026V15.458a6.978,6.978,0,0,0,3.631,0Z" transform="translate(0 0)" fill="#fff"/>
</svg>
