<svg xmlns="http://www.w3.org/2000/svg" width="24" height="24" viewBox="0 0 24 24">
  <g id="dashboard" transform="translate(-2 -2)">
    <g id="Group_25" data-name="Group 25" transform="translate(15.386 12.585)">
      <path id="Path_29" data-name="Path 29" d="M25.6,27.729H19.016A2.059,2.059,0,0,1,17,25.634V17.1A2.059,2.059,0,0,1,19.016,15H25.6a2.059,2.059,0,0,1,2.016,2.1v8.539A2.059,2.059,0,0,1,25.6,27.729ZM19.016,16.7a.391.391,0,0,0-.383.4v8.539a.391.391,0,0,0,.383.4H25.6a.391.391,0,0,0,.383-.4V17.1a.391.391,0,0,0-.383-.4Z" transform="translate(-17 -14.314)" fill="#e43927"/>
    </g>
    <g id="Group_26" data-name="Group 26" transform="translate(15.386 2)">
      <path id="Path_30" data-name="Path 30" d="M25.6,10.994H19.016A2.02,2.02,0,0,1,17,8.976V4.019A2.02,2.02,0,0,1,19.016,2H25.6a2.02,2.02,0,0,1,2.016,2.019V8.976A2.02,2.02,0,0,1,25.6,10.994ZM19.016,3.635a.383.383,0,0,0-.383.383V8.976a.383.383,0,0,0,.383.383H25.6a.383.383,0,0,0,.383-.383V4.019a.383.383,0,0,0-.383-.383Z" transform="translate(-17 -2)" fill="#e43927"/>
    </g>
    <g id="Group_27" data-name="Group 27" transform="translate(2 2)">
      <path id="Path_31" data-name="Path 31" d="M11.418,14.309H4.208A2.126,2.126,0,0,1,2,12.283V4.026A2.126,2.126,0,0,1,4.208,2h7.21a2.126,2.126,0,0,1,2.208,2.026v8.257A2.126,2.126,0,0,1,11.418,14.309ZM4.208,3.641a.4.4,0,0,0-.419.385v8.257a.4.4,0,0,0,.419.385h7.21a.4.4,0,0,0,.419-.385V4.026a.4.4,0,0,0-.419-.385Z" transform="translate(-2 -2)" fill="#e43927"/>
    </g>
    <g id="Group_28" data-name="Group 28" transform="translate(2 16.162)">
      <path id="Path_32" data-name="Path 32" d="M11.418,28.838H4.208A2.211,2.211,0,0,1,2,26.63V21.208A2.211,2.211,0,0,1,4.208,19h7.21a2.211,2.211,0,0,1,2.208,2.208V26.63A2.211,2.211,0,0,1,11.418,28.838Zm-7.21-8.049a.419.419,0,0,0-.419.419V26.63a.419.419,0,0,0,.419.419h7.21a.419.419,0,0,0,.419-.419V21.208a.419.419,0,0,0-.419-.419Z" transform="translate(-2 -19)" fill="#e43927"/>
    </g>
  </g>
</svg>
