<svg xmlns="http://www.w3.org/2000/svg" width="28.009" height="30.992" viewBox="0 0 28.009 30.992">
  <path id="date-of-birth" d="M28.59,33.378h.4V26.3a2.054,2.054,0,0,0,.768-1.589v-2.38a2.474,2.474,0,0,0-2.576-2.352H25.98V14.2a1.756,1.756,0,0,0-1.754-1.754h-.109v-.633a2.8,2.8,0,0,0,1.876-2.642,6.353,6.353,0,0,0-1.048-2.83c-.479-.891-.95-1.64-.97-1.672a.923.923,0,0,0-1.562,0c-.02.032-.492.781-.97,1.672a6.352,6.352,0,0,0-1.048,2.83,2.8,2.8,0,0,0,1.876,2.642v.633h-.109A1.756,1.756,0,0,0,20.407,14.2v5.786H18.543V14.2a1.756,1.756,0,0,0-1.754-1.754H16.68v-.633a2.8,2.8,0,0,0,1.876-2.642,6.353,6.353,0,0,0-1.048-2.83c-.479-.891-.95-1.64-.97-1.672a.923.923,0,0,0-1.562,0c-.02.032-.492.781-.97,1.672a6.352,6.352,0,0,0-1.048,2.83,2.8,2.8,0,0,0,1.876,2.642v.633h-.109A1.756,1.756,0,0,0,12.97,14.2v5.786H11.106V14.2a1.756,1.756,0,0,0-1.754-1.754H9.243v-.633a2.8,2.8,0,0,0,1.876-2.642,6.353,6.353,0,0,0-1.048-2.83c-.479-.891-.95-1.64-.97-1.672a.923.923,0,0,0-1.562,0c-.02.032-.492.781-.97,1.672A6.352,6.352,0,0,0,5.52,9.166,2.8,2.8,0,0,0,7.4,11.808v.633H7.287A1.756,1.756,0,0,0,5.533,14.2v5.786H4.328a2.474,2.474,0,0,0-2.576,2.352v2.38A2.054,2.054,0,0,0,2.52,26.3v7.076h.4a.923.923,0,0,0,0,1.846H28.59a.923.923,0,1,0,0-1.846ZM22.241,9.167a8.181,8.181,0,0,1,.953-2.19,8.175,8.175,0,0,1,.952,2.19.952.952,0,1,1-1.9,0Zm.012,5.121h1.88v5.689h-1.88ZM14.8,9.167a8.182,8.182,0,0,1,.953-2.19,8.174,8.174,0,0,1,.952,2.19.952.952,0,1,1-1.9,0Zm.012,5.121H16.7v5.689h-1.88ZM7.367,9.167a8.181,8.181,0,0,1,.953-2.19,8.175,8.175,0,0,1,.952,2.19.952.952,0,1,1-1.9,0Zm.012,5.121H9.26v5.689H7.379ZM27.146,33.378H4.366V26.836a2.536,2.536,0,0,0,.43-.088l2.331-.69a7.445,7.445,0,0,1,4.177,0l1.84.545a9.311,9.311,0,0,0,5.225,0l1.84-.545a7.444,7.444,0,0,1,4.177,0l2.331.69a2.537,2.537,0,0,0,.43.088v6.542Zm.768-8.664a.244.244,0,0,1-.114.178.643.643,0,0,1-.56.085l-2.331-.69a9.31,9.31,0,0,0-5.225,0l-1.84.545a7.444,7.444,0,0,1-4.177,0l-1.84-.545a9.31,9.31,0,0,0-5.225,0l-2.331.69a.643.643,0,0,1-.56-.085.244.244,0,0,1-.114-.178v-2.38c0-.239.3-.506.729-.506H27.185c.43,0,.729.266.729.506v2.38Z" transform="translate(-1.752 -4.233)" fill="#e43927"/>
</svg>
