<svg xmlns="http://www.w3.org/2000/svg" width="20.89" height="26" viewBox="0 0 20.89 26">
  <path id="details" d="M70.39,0H51.124a.812.812,0,0,0-.812.813V25.187a.813.813,0,0,0,.813.813H65.737a.813.813,0,0,0,.575-.238l4.653-4.653a.813.813,0,0,0,.238-.574V.813A.812.812,0,0,0,70.39,0ZM51.937,1.625h17.64v18.1h-3.84a.813.813,0,0,0-.813.813v3.84H51.937ZM68.428,21.347l-1.879,1.879V21.347ZM53.257,13.327a.812.812,0,0,1,.812-.813H67.444a.813.813,0,0,1,0,1.625H54.07A.812.812,0,0,1,53.257,13.327Zm15.1,3.879a.812.812,0,0,1-.812.813H54.171a.812.812,0,0,1,0-1.625H67.545A.813.813,0,0,1,68.357,17.205Zm-4.936,3.879a.812.812,0,0,1-.812.812H54.171a.812.812,0,1,1,0-1.625h8.438A.812.812,0,0,1,63.421,21.084Zm-5.957-10H64.05a.812.812,0,0,0,.812-.812,4.11,4.11,0,0,0-2.3-3.686,2.37,2.37,0,1,0-3.612,0,4.11,4.11,0,0,0-2.3,3.686A.812.812,0,0,0,57.464,11.083Zm3.293-6.775a.745.745,0,1,1-.744.744A.745.745,0,0,1,60.757,4.308Zm0,3.482A2.485,2.485,0,0,1,63.1,9.458H58.413A2.485,2.485,0,0,1,60.757,7.79Z" transform="translate(-50.312)" fill="#fff"/>
</svg>
