<svg id="diagnosis" xmlns="http://www.w3.org/2000/svg" width="54.048" height="57" viewBox="0 0 54.048 57">
  <path id="Path_1320" data-name="Path 1320" d="M1.9,8.785H7.018a3.9,3.9,0,0,0,3.77,2.951h14.76a3.9,3.9,0,0,0,3.77-2.951h5.121v14.8h1.9V7.837a.947.947,0,0,0-.948-.948h-6.07a3.9,3.9,0,0,0-3.77-2.952H22.536a4.392,4.392,0,0,0-8.737,0H10.788a3.9,3.9,0,0,0-3.77,2.952H.948A.947.947,0,0,0,0,7.836v43.3a.947.947,0,0,0,.948.948H25.6v-1.9H1.9Zm8.891-2.953h3.985a.948.948,0,0,0,.941-1.065L15.7,4.646a1.874,1.874,0,0,1-.026-.255,2.5,2.5,0,1,1,4.99,0,2.1,2.1,0,0,1-.027.27s-.013.1-.014.1a.949.949,0,0,0,.941,1.07h3.985a2,2,0,1,1,0,4.006H10.788a2,2,0,1,1,0-4.006Z" transform="translate(0 0)" fill="#6e3589"/>
  <path id="Path_1321" data-name="Path 1321" d="M55.069,36.241A5.844,5.844,0,1,0,48.277,42V54a2.514,2.514,0,0,1-2.512,2.511H33.1A2.514,2.514,0,0,1,30.59,54V50.238A10.965,10.965,0,0,0,41.2,39.1V32.454a3.636,3.636,0,0,0-3.442-3.676,2.446,2.446,0,0,0-.573-.879,2.638,2.638,0,0,0-3.64-.019,2.528,2.528,0,0,0-.77,1.832,2.583,2.583,0,0,0,2.58,2.58,2.6,2.6,0,0,0,2.392-1.619A1.745,1.745,0,0,1,39.3,32.454V39.1a9.065,9.065,0,0,1-8.843,9.252,8.6,8.6,0,0,1-6.244-2.695,9.4,9.4,0,0,1-2.6-6.557V32.454a1.749,1.749,0,0,1,1.5-1.774,2.366,2.366,0,0,0,2.235,1.613h.419a2.373,2.373,0,0,0,2.371-2.371V29.5a2.373,2.373,0,0,0-2.371-2.371h-.419A2.366,2.366,0,0,0,23.1,28.785a3.636,3.636,0,0,0-3.387,3.671V39.1a11.3,11.3,0,0,0,3.128,7.87,10.528,10.528,0,0,0,5.849,3.118V54A4.412,4.412,0,0,0,33.1,58.405H45.764A4.413,4.413,0,0,0,50.173,54V42a5.851,5.851,0,0,0,4.9-5.761ZM35.825,30.2a.654.654,0,0,1-.472.2.693.693,0,0,1-.684-.684.666.666,0,0,1,.213-.49.651.651,0,0,1,.47-.194.671.671,0,0,1,.49.213.649.649,0,0,1,.193.471.666.666,0,0,1-.211.488Zm-10.948-.7a.476.476,0,0,1,.474-.474h.419a.476.476,0,0,1,.474.474v.419a.475.475,0,0,1-.474.474h-.419a.475.475,0,0,1-.474-.474ZM49.225,40.189a3.948,3.948,0,1,1,3.947-3.948A3.953,3.953,0,0,1,49.225,40.189Z" transform="translate(-1.021 -1.405)" fill="#6e3589"/>
  <path id="Path_1322" data-name="Path 1322" d="M50.674,33.587a2.988,2.988,0,1,0,2.988,2.988A2.992,2.992,0,0,0,50.674,33.587Zm0,4.08a1.091,1.091,0,1,1,1.091-1.091A1.093,1.093,0,0,1,50.674,37.667Z" transform="translate(-2.469 -1.739)" fill="#6e3589"/>
  <path id="Path_1323" data-name="Path 1323" d="M10.968,16.514a.947.947,0,0,0-.948-.948H5.1a.947.947,0,0,0-.948.948v4.919a.947.947,0,0,0,.948.948h4.919a.947.947,0,0,0,.948-.948V16.514Zm-1.9,3.972H6.047V17.463H9.071Z" transform="translate(-0.215 -0.806)" fill="#6e3589"/>
  <path id="Path_1324" data-name="Path 1324" d="M13.453,16.6H24.277v1.9H13.453Z" transform="translate(-0.697 -0.86)" fill="#6e3589"/>
  <path id="Path_1325" data-name="Path 1325" d="M13.453,19.717h6.888v1.9H13.453Z" transform="translate(-0.697 -1.021)" fill="#6e3589"/>
  <path id="Path_1326" data-name="Path 1326" d="M10.968,25.853a.947.947,0,0,0-.948-.948H5.1a.947.947,0,0,0-.948.948v4.92a.947.947,0,0,0,.948.948h4.919a.947.947,0,0,0,.948-.948v-4.92Zm-1.9,3.973H6.047V26.8H9.071Z" transform="translate(-0.215 -1.29)" fill="#6e3589"/>
  <path id="Path_1327" data-name="Path 1327" d="M13.453,25.943h7.872v1.9H13.453Z" transform="translate(-0.697 -1.343)" fill="#6e3589"/>
  <path id="Path_1328" data-name="Path 1328" d="M13.453,29.057h4.919v1.9H13.453Z" transform="translate(-0.697 -1.505)" fill="#6e3589"/>
  <path id="Path_1329" data-name="Path 1329" d="M10.968,35.193a.947.947,0,0,0-.948-.948H5.1a.947.947,0,0,0-.948.948v4.919a.947.947,0,0,0,.948.948h4.919a.947.947,0,0,0,.948-.948V35.193Zm-1.9,3.972H6.047V36.142H9.071Z" transform="translate(-0.215 -1.773)" fill="#6e3589"/>
  <path id="Path_1330" data-name="Path 1330" d="M13.453,35.283h3.935v1.9H13.453Z" transform="translate(-0.697 -1.827)" fill="#6e3589"/>
  <path id="Path_1331" data-name="Path 1331" d="M13.453,38.4h4.919v1.9H13.453Z" transform="translate(-0.697 -1.988)" fill="#6e3589"/>
  <path id="Path_1332" data-name="Path 1332" d="M10.019,43.585H5.1a.947.947,0,0,0-.948.948v4.919A.947.947,0,0,0,5.1,50.4h4.919a.947.947,0,0,0,.948-.948V44.533a.946.946,0,0,0-.947-.948ZM9.071,48.5H6.047V45.481H9.071Z" transform="translate(-0.215 -2.257)" fill="#6e3589"/>
  <path id="Path_1333" data-name="Path 1333" d="M13.453,44.623h4.919v1.9H13.453Z" transform="translate(-0.697 -2.311)" fill="#6e3589"/>
  <path id="Path_1334" data-name="Path 1334" d="M13.453,47.736h6.888v1.9H13.453Z" transform="translate(-0.697 -2.472)" fill="#6e3589"/>
  <path id="Path_1335" data-name="Path 1335" d="M28.8,23.162h3.062a.947.947,0,0,0,.948-.948v-.924h.966a.947.947,0,0,0,.948-.948V17.348a.947.947,0,0,0-.948-.948h-.966v-.924a.947.947,0,0,0-.948-.948H28.8a.947.947,0,0,0-.948.948V16.4h-.965a.947.947,0,0,0-.948.948v2.994a.947.947,0,0,0,.948.948h.965v.924a.947.947,0,0,0,.948.948Zm-.965-3.768V18.3H28.8a.947.947,0,0,0,.948-.948v-.924h1.165v.924a.947.947,0,0,0,.948.948h.966v1.1h-.966a.947.947,0,0,0-.948.948v.924H29.753v-.924a.947.947,0,0,0-.948-.948Z" transform="translate(-1.343 -0.752)" fill="#6e3589"/>
</svg>
