<svg id="diagnosis" xmlns="http://www.w3.org/2000/svg" width="24.654" height="26" viewBox="0 0 24.654 26">
  <path id="Path_1320" data-name="Path 1320" d="M.865,4.007H3.2a1.778,1.778,0,0,0,1.72,1.346h6.733a1.778,1.778,0,0,0,1.72-1.346h2.336v6.749h.865V3.575a.432.432,0,0,0-.433-.433H13.373A1.777,1.777,0,0,0,11.653,1.8H10.28a2,2,0,0,0-3.985,0H4.921A1.777,1.777,0,0,0,3.2,3.142H.433A.432.432,0,0,0,0,3.574V23.323a.432.432,0,0,0,.433.433H11.678v-.865H.865ZM4.921,2.66H6.739a.433.433,0,0,0,.429-.486l-.007-.055A.855.855,0,0,1,7.149,2,1.138,1.138,0,1,1,9.425,2a.96.96,0,0,1-.013.123s-.006.045-.006.046a.433.433,0,0,0,.429.488h1.818a.914.914,0,1,1,0,1.827H4.921a.914.914,0,1,1,0-1.827Z" transform="translate(0 0)" fill="#6e3589"/>
  <path id="Path_1321" data-name="Path 1321" d="M35.843,31.287a2.666,2.666,0,1,0-3.1,2.628v5.472A1.147,1.147,0,0,1,31.6,40.532H25.822a1.147,1.147,0,0,1-1.145-1.145V37.672a5,5,0,0,0,4.839-5.082V29.56a1.659,1.659,0,0,0-1.57-1.677,1.116,1.116,0,0,0-.261-.4,1.2,1.2,0,0,0-1.66-.009,1.153,1.153,0,0,0-.351.836,1.178,1.178,0,0,0,1.177,1.177,1.185,1.185,0,0,0,1.091-.738.8.8,0,0,1,.709.812v3.03a4.135,4.135,0,0,1-4.034,4.22,3.925,3.925,0,0,1-2.848-1.229,4.29,4.29,0,0,1-1.186-2.991V29.56a.8.8,0,0,1,.686-.809,1.079,1.079,0,0,0,1.019.736h.191a1.082,1.082,0,0,0,1.081-1.081v-.191a1.082,1.082,0,0,0-1.081-1.081h-.191a1.079,1.079,0,0,0-1.025.753,1.659,1.659,0,0,0-1.545,1.674v3.03a5.154,5.154,0,0,0,1.427,3.59A4.8,4.8,0,0,0,23.812,37.6v1.785a2.013,2.013,0,0,0,2.01,2.01H31.6a2.013,2.013,0,0,0,2.011-2.01V33.915a2.669,2.669,0,0,0,2.234-2.628Zm-8.778-2.755a.3.3,0,0,1-.215.089.316.316,0,0,1-.312-.312.3.3,0,0,1,.1-.224A.3.3,0,0,1,26.849,28a.306.306,0,0,1,.224.1.3.3,0,0,1,.088.215A.3.3,0,0,1,27.065,28.533Zm-4.994-.318A.217.217,0,0,1,22.287,28h.191a.217.217,0,0,1,.216.216v.191a.217.217,0,0,1-.216.216h-.191a.217.217,0,0,1-.216-.216Zm11.106,4.874a1.8,1.8,0,1,1,1.8-1.8A1.8,1.8,0,0,1,33.177,33.088Z" transform="translate(-11.189 -15.397)" fill="#6e3589"/>
  <path id="Path_1322" data-name="Path 1322" d="M49.049,33.587a1.363,1.363,0,1,0,1.363,1.363A1.365,1.365,0,0,0,49.049,33.587Zm0,1.861a.5.5,0,1,1,.5-.5A.5.5,0,0,1,49.049,35.448Z" transform="translate(-27.061 -19.06)" fill="#6e3589"/>
  <path id="Path_1323" data-name="Path 1323" d="M7.26,16a.432.432,0,0,0-.433-.433H4.584A.432.432,0,0,0,4.151,16v2.244a.432.432,0,0,0,.433.433H6.827a.432.432,0,0,0,.433-.433V16ZM6.4,17.81H5.016V16.431H6.4Z" transform="translate(-2.356 -8.833)" fill="#6e3589"/>
  <path id="Path_1324" data-name="Path 1324" d="M13.453,16.6H18.39v.865H13.453Z" transform="translate(-7.634 -9.422)" fill="#6e3589"/>
  <path id="Path_1325" data-name="Path 1325" d="M13.453,19.717h3.142v.865H13.453Z" transform="translate(-7.634 -11.189)" fill="#6e3589"/>
  <path id="Path_1326" data-name="Path 1326" d="M7.26,25.338a.432.432,0,0,0-.433-.433H4.584a.432.432,0,0,0-.433.433v2.244a.432.432,0,0,0,.433.433H6.827a.432.432,0,0,0,.433-.433V25.338ZM6.4,27.15H5.016V25.77H6.4Z" transform="translate(-2.356 -14.133)" fill="#6e3589"/>
  <path id="Path_1327" data-name="Path 1327" d="M13.453,25.943h3.591v.865H13.453Z" transform="translate(-7.634 -14.722)" fill="#6e3589"/>
  <path id="Path_1328" data-name="Path 1328" d="M13.453,29.057H15.7v.865H13.453Z" transform="translate(-7.634 -16.489)" fill="#6e3589"/>
  <path id="Path_1329" data-name="Path 1329" d="M7.26,34.678a.432.432,0,0,0-.433-.433H4.584a.432.432,0,0,0-.433.433v2.244a.432.432,0,0,0,.433.433H6.827a.432.432,0,0,0,.433-.433V34.678ZM6.4,36.489H5.016V35.11H6.4Z" transform="translate(-2.356 -19.433)" fill="#6e3589"/>
  <path id="Path_1330" data-name="Path 1330" d="M13.453,35.283h1.795v.865H13.453Z" transform="translate(-7.634 -20.022)" fill="#6e3589"/>
  <path id="Path_1331" data-name="Path 1331" d="M13.453,38.4H15.7v.865H13.453Z" transform="translate(-7.634 -21.789)" fill="#6e3589"/>
  <path id="Path_1332" data-name="Path 1332" d="M6.828,43.585H4.584a.432.432,0,0,0-.433.433v2.244a.432.432,0,0,0,.433.433H6.827a.432.432,0,0,0,.433-.433V44.018a.431.431,0,0,0-.432-.433ZM6.4,45.829H5.016V44.45H6.4Z" transform="translate(-2.356 -24.734)" fill="#6e3589"/>
  <path id="Path_1333" data-name="Path 1333" d="M13.453,44.623H15.7v.865H13.453Z" transform="translate(-7.634 -25.323)" fill="#6e3589"/>
  <path id="Path_1334" data-name="Path 1334" d="M13.453,47.736h3.142V48.6H13.453Z" transform="translate(-7.634 -27.089)" fill="#6e3589"/>
  <path id="Path_1335" data-name="Path 1335" d="M27.248,18.467h1.4a.432.432,0,0,0,.433-.433v-.421h.441a.432.432,0,0,0,.433-.433V15.814a.432.432,0,0,0-.433-.433h-.441v-.421a.432.432,0,0,0-.433-.433h-1.4a.432.432,0,0,0-.433.433v.421h-.44a.432.432,0,0,0-.433.433V17.18a.432.432,0,0,0,.433.433h.44v.421a.432.432,0,0,0,.433.433Zm-.44-1.719v-.5h.44a.432.432,0,0,0,.433-.433v-.421h.532v.421a.432.432,0,0,0,.433.433h.441v.5h-.441a.432.432,0,0,0-.433.433V17.6h-.532V17.18a.432.432,0,0,0-.433-.433Z" transform="translate(-14.722 -8.244)" fill="#6e3589"/>
</svg>
