<svg xmlns="http://www.w3.org/2000/svg" width="21.328" height="28" viewBox="0 0 21.328 28">
  <g id="document" transform="translate(-61)">
    <path id="Path_1122" data-name="Path 1122" d="M81.387,5.812,76.114.823A3,3,0,0,0,74.047,0H64.008A3.011,3.011,0,0,0,61,3.008V24.992A3.011,3.011,0,0,0,64.008,28H79.32a3.011,3.011,0,0,0,3.008-3.008V8A3.02,3.02,0,0,0,81.387,5.812Zm-1.593.751H75.711a.274.274,0,0,1-.273-.273V2.441Zm-.474,19.8H64.008a1.369,1.369,0,0,1-1.367-1.367V3.008a1.369,1.369,0,0,1,1.367-1.367H73.8V6.289A1.916,1.916,0,0,0,75.711,8.2h4.977V24.992A1.369,1.369,0,0,1,79.32,26.359Z" transform="translate(0 0)" fill="#fff"/>
    <path id="Path_1123" data-name="Path 1123" d="M140.761,200H128.815a.831.831,0,0,0,0,1.661h11.947a.831.831,0,0,0,0-1.661Z" transform="translate(-63.29 -189.071)" fill="#fff"/>
    <path id="Path_1124" data-name="Path 1124" d="M140.761,280H128.815a.831.831,0,0,0,0,1.661h11.947a.831.831,0,0,0,0-1.661Z" transform="translate(-63.29 -264.699)" fill="#fff"/>
    <path id="Path_1125" data-name="Path 1125" d="M132.857,360h-4.027a.831.831,0,1,0,0,1.661h4.027a.831.831,0,1,0,0-1.661Z" transform="translate(-63.352 -340.328)" fill="#fff"/>
  </g>
</svg>
