<?xml version="1.0" standalone="no"?>
<!DOCTYPE svg PUBLIC "-//W3C//DTD SVG 20010904//EN"
 "http://www.w3.org/TR/2001/REC-SVG-20010904/DTD/svg10.dtd">
<svg version="1.0" xmlns="http://www.w3.org/2000/svg"
 width="99.000000pt" height="100.000000pt" viewBox="0 0 99.000000 100.000000"
 preserveAspectRatio="xMidYMid meet">

<g transform="translate(0.000000,100.000000) scale(0.100000,-0.100000)"
fill="#000000" stroke="none">
<path d="M140 500 l0 -460 355 0 355 0 0 333 0 332 -128 128 -127 127 -228 0
-227 0 0 -460z m440 300 l0 -120 115 0 115 0 0 -300 0 -300 -315 0 -315 0 0
420 0 420 200 0 200 0 0 -120z m124 3 l79 -83 -86 0 -87 0 0 86 c0 47 3 84 8
82 4 -1 43 -40 86 -85z"/>
<path d="M280 780 c0 -19 7 -20 125 -20 118 0 125 1 125 20 0 19 -7 20 -125
20 -118 0 -125 -1 -125 -20z"/>
<path d="M280 700 c0 -19 7 -20 125 -20 118 0 125 1 125 20 0 19 -7 20 -125
20 -118 0 -125 -1 -125 -20z"/>
<path d="M280 620 c0 -19 7 -20 225 -20 218 0 225 1 225 20 0 19 -7 20 -225
20 -218 0 -225 -1 -225 -20z"/>
<path d="M280 540 c0 -19 7 -20 225 -20 218 0 225 1 225 20 0 19 -7 20 -225
20 -218 0 -225 -1 -225 -20z"/>
<path d="M280 460 c0 -19 7 -20 105 -20 98 0 105 1 105 20 0 19 -7 20 -105 20
-98 0 -105 -1 -105 -20z"/>
<path d="M572 433 c-36 -7 -100 -77 -108 -117 -16 -88 42 -177 124 -191 63
-10 129 25 160 85 28 56 28 84 0 140 -34 66 -100 97 -176 83z m130 -72 c23
-25 28 -41 28 -81 0 -71 -36 -111 -107 -117 -47 -5 -53 -3 -89 30 -36 32 -39
40 -39 87 0 47 3 55 39 87 36 33 42 35 89 30 41 -3 56 -10 79 -36z"/>
<path d="M600 330 c0 -27 -3 -30 -30 -30 -23 0 -30 -4 -30 -20 0 -16 7 -20 30
-20 27 0 30 -3 30 -30 0 -20 5 -30 15 -30 10 0 15 10 15 30 0 27 3 30 30 30
23 0 30 4 30 20 0 16 -7 20 -30 20 -27 0 -30 3 -30 30 0 20 -5 30 -15 30 -10
0 -15 -10 -15 -30z"/>
</g>
</svg>
