<svg xmlns="http://www.w3.org/2000/svg" width="14.92" height="22.38" viewBox="0 0 14.92 22.38">
  <g id="download" transform="translate(-85.334)">
    <g id="Group_168" data-name="Group 168" transform="translate(85.334)">
      <g id="Group_167" data-name="Group 167">
        <path id="Path_1350" data-name="Path 1350" d="M92.134,18.377h0c.022.022.044.042.068.061l.033.025.04.029.041.025.038.022.042.02.04.019.042.015.044.015.042.011.046.011.049.008.041.006a.938.938,0,0,0,.184,0l.041-.006.049-.008.046-.011.042-.011.044-.015.042-.015.04-.019.042-.02.038-.022.041-.025.04-.029.033-.025c.024-.019.046-.04.068-.061h0l6.528-6.528a.933.933,0,0,0-1.319-1.319l-4.936,4.936V.932a.932.932,0,0,0-1.865,0V15.466l-4.936-4.936a.933.933,0,0,0-1.319,1.319Z" transform="translate(-85.334)" fill="#e43927"/>
        <path id="Path_1351" data-name="Path 1351" d="M99.322,469.333H86.267a.933.933,0,0,0,0,1.865H99.322a.933.933,0,0,0,0-1.865Z" transform="translate(-85.334 -448.818)" fill="#e43927"/>
      </g>
    </g>
  </g>
</svg>
