<svg xmlns="http://www.w3.org/2000/svg" width="26.79" height="30.481" viewBox="0 0 26.79 30.481">
  <g id="e-mail" transform="translate(-30)">
    <g id="Group_138" data-name="Group 138" transform="translate(38.144 3.572)">
      <g id="Group_137" data-name="Group 137">
        <path id="Path_1287" data-name="Path 1287" d="M157.251,60a6.25,6.25,0,0,0-3.364,11.518,6.38,6.38,0,0,0,6.217.34.893.893,0,0,0-.746-1.622,4.626,4.626,0,0,1-4.507-.221,4.464,4.464,0,1,1,6.866-3.763.893.893,0,0,1-1.786.014s0-.009,0-.014a2.683,2.683,0,1,0-.893,1.995,2.677,2.677,0,0,0,4.465-1.995A6.258,6.258,0,0,0,157.251,60Zm.88,6.394a.891.891,0,1,1,.006-.245A.894.894,0,0,0,158.131,66.394Z" transform="translate(-151 -60)" fill="#e43927"/>
      </g>
    </g>
    <g id="Group_140" data-name="Group 140" transform="translate(30)">
      <g id="Group_139" data-name="Group 139">
        <path id="Path_1288" data-name="Path 1288" d="M57.79,11.726a.9.9,0,0,0-.262-.63l-3.31-3.31V.893A.893.893,0,0,0,53.325,0H35.465a.893.893,0,0,0-.893.893V7.786l-3.31,3.31-.009.01a.9.9,0,0,0-.253.62V27.8a2.682,2.682,0,0,0,2.679,2.679H55.111A2.682,2.682,0,0,0,57.79,27.8V11.726Zm-3.572-1.415,1.416,1.416-1.416,1.416ZM36.358,8.156h0V1.786H52.432v6.37h0V14.93L47.6,19.765h-6.4L36.358,14.93Zm-1.786,2.156v2.832l-1.416-1.416Zm-1.786,17.12V13.884l6.774,6.774Zm1.263,1.263,7.144-7.144h6.4l7.144,7.144ZM56,27.432,49.23,20.658,56,13.884Z" transform="translate(-31)" fill="#e43927"/>
      </g>
    </g>
  </g>
</svg>
