<svg xmlns="http://www.w3.org/2000/svg" width="21.32" height="33.5" viewBox="0 0 21.32 33.5">
  <g id="emergency-number" transform="translate(-7 -1)">
    <path id="Path_1289" data-name="Path 1289" d="M24.588,1H10.73A3.635,3.635,0,0,0,7,4.519V30.984A3.635,3.635,0,0,0,10.732,34.5H24.59a3.635,3.635,0,0,0,3.73-3.519V4.519A3.635,3.635,0,0,0,24.588,1Zm1.363,29.981a1.328,1.328,0,0,1-1.363,1.285H10.73a1.328,1.328,0,0,1-1.361-1.285V4.519a1.328,1.328,0,0,1,1.363-1.285H24.59a1.328,1.328,0,0,1,1.361,1.285Z" transform="translate(0)" fill="#e43927"/>
    <path id="Path_1290" data-name="Path 1290" d="M19,25H13a1,1,0,0,0,0,2h6a1,1,0,0,0,0-2Z" transform="translate(1.66 3.5)" fill="#e43927"/>
    <path id="Path_1291" data-name="Path 1291" d="M14,6h4a1,1,0,0,0,0-2H14a1,1,0,0,0,0,2Z" transform="translate(1.66)" fill="#e43927"/>
    <g id="Group_178" data-name="Group 178" transform="translate(13 11.823)">
      <path id="Path_1369" data-name="Path 1369" d="M54.732,161.239h-.9v-1.991a3.249,3.249,0,1,0-6.5,0v1.991h-.9a.437.437,0,0,0-.437.437v1.659a.437.437,0,0,0,.437.437h8.3a.437.437,0,0,0,.437-.437v-1.659A.437.437,0,0,0,54.732,161.239Zm-6.523-1.991a2.375,2.375,0,0,1,4.751,0v1.991H48.209ZM54.3,162.9H46.873v-.786H54.3Z" transform="translate(-46 -152.594)" fill="#e43927"/>
      <path id="Path_1370" data-name="Path 1370" d="M236.437,2.532a.437.437,0,0,0,.437-.437V.437a.437.437,0,0,0-.873,0V2.1A.437.437,0,0,0,236.437,2.532Z" transform="translate(-231.852)" fill="#e43927"/>
      <path id="Path_1371" data-name="Path 1371" d="M373.005,57.61l1.173-1.173a.437.437,0,1,0-.617-.617l-1.173,1.173a.437.437,0,1,0,.617.617Z" transform="translate(-365.137 -54.476)" fill="#e43927"/>
      <path id="Path_1372" data-name="Path 1372" d="M47.3,57.61a.437.437,0,0,0,.617-.617l-1.173-1.173a.437.437,0,0,0-.617.617Z" transform="translate(-46 -54.475)" fill="#e43927"/>
    </g>
  </g>
</svg>
