<svg xmlns="http://www.w3.org/2000/svg" width="41.628" height="34" viewBox="0 0 41.628 34">
  <path id="evening" d="M41.628,53.772c0-.268-.01-.543-.03-.841l-.075-1.109H39.588l-.341.642a6.992,6.992,0,0,1-6.208,3.679,6.9,6.9,0,0,1-6.985-6.793,6.755,6.755,0,0,1,3.784-6.038l.66-.332V41.1l-1.14-.073c-.308-.02-.592-.03-.868-.03A12.976,12.976,0,0,0,15.354,53.772c0,.105,0,.21,0,.316-.308-.029-.619-.046-.931-.046A9.52,9.52,0,0,0,8.01,56.5a9.047,9.047,0,0,0-2.849,5.1A6.8,6.8,0,0,0,7.007,75H29.862a5.518,5.518,0,0,0,5.587-5.434,5.325,5.325,0,0,0-1.6-3.807c-.075-.074-.152-.144-.23-.214A12.79,12.79,0,0,0,41.628,53.772ZM29.862,72.621H7.007a4.435,4.435,0,0,1-.589-8.845l.988-.124.073-.966a6.677,6.677,0,0,1,2.2-4.45,7.049,7.049,0,0,1,4.752-1.821,6.941,6.941,0,0,1,6.465,4.246l.363.876.959-.147a6.048,6.048,0,0,1,.911-.069A5.769,5.769,0,0,1,28.762,65.6l.226.883.935.017a3.06,3.06,0,1,1-.061,6.119Zm.9-8.683a8.238,8.238,0,0,0-7.64-4.991q-.178,0-.358.008a9.233,9.233,0,0,0-3.014-3.306,9.48,9.48,0,0,0-1.919-.988c-.026-.3-.04-.593-.04-.889a10.469,10.469,0,0,1,7.764-10.006,8.981,8.981,0,0,0-1.945,5.584,9.309,9.309,0,0,0,9.425,9.167,9.571,9.571,0,0,0,5.739-1.89A10.583,10.583,0,0,1,30.765,63.938Z" transform="translate(0 -40.995)" fill="#e43927"/>
</svg>
