<svg xmlns="http://www.w3.org/2000/svg" width="24.461" height="28" viewBox="0 0 24.461 28">
  <path id="finish" d="M7.264,14.146H5.079V11.961H7.264ZM16,11.961H9.449v2.185H16ZM5.079,18.515H7.264V16.33H5.079Zm4.369,0H16V16.33H9.449Zm13.387-2.1-7.588,8.448-4.282-4.076L9.46,22.374,15.371,28l9.09-10.121ZM9.869,25.778l2.295,2.185H3.277A3.281,3.281,0,0,1,0,24.686V5.462A3.281,3.281,0,0,1,3.277,2.185H7.451a3.277,3.277,0,0,1,6.179,0H17.75a3.281,3.281,0,0,1,3.277,3.277v9.7L18.843,17.6V5.462A1.094,1.094,0,0,0,17.75,4.369H16V8.684H5.08V4.369h-1.8A1.094,1.094,0,0,0,2.185,5.462V24.686a1.093,1.093,0,0,0,1.092,1.092ZM7.264,4.369V6.5h6.554V4.369H11.633V3.277a1.092,1.092,0,1,0-2.185,0V4.369Zm0,0" transform="translate(0 0)" fill="#fff"/>
</svg>
