<svg xmlns="http://www.w3.org/2000/svg" width="29.44" height="31.426" viewBox="0 0 29.44 31.426">
  <g id="gender" transform="translate(-16.179 1)">
    <g id="Group_142" data-name="Group 142" transform="translate(16.179 -1)">
      <path id="Path_1295" data-name="Path 1295" d="M39.978,0V1.924h2.17L37.915,5.939a8.242,8.242,0,0,0-13.122,1.78c-.121-.005-.242-.008-.364-.008a8.25,8.25,0,0,0-.962,16.445v2.557h-2.88v1.924h2.88v2.79h1.924v-2.79H28.4V26.712H25.392V24.155a8.266,8.266,0,0,0,6.262-4.212c.121.005.242.008.363.008A8.247,8.247,0,0,0,39.1,7.47l4.6-4.36V5.5h1.924V0ZM24.43,22.288a6.326,6.326,0,0,1-.4-12.64,8.255,8.255,0,0,0,5.582,9.945A6.323,6.323,0,0,1,24.43,22.288Zm6.043-4.451a6.329,6.329,0,0,1-4.5-8.011,6.329,6.329,0,0,1,4.5,8.011Zm1.949.178A8.255,8.255,0,0,0,26.839,8.07a6.325,6.325,0,1,1,5.582,9.945Z" transform="translate(-16.179)" fill="#e43927"/>
    </g>
  </g>
</svg>
