<svg id="height" xmlns="http://www.w3.org/2000/svg" width="27.466" height="31.251" viewBox="0 0 27.466 31.251">
  <path id="Path_1292" data-name="Path 1292" d="M42.287,6.717a3.638,3.638,0,0,0,.494-1.834V3.662a3.662,3.662,0,1,0-7.324,0V4.883a3.638,3.638,0,0,0,.494,1.834A5.193,5.193,0,0,0,30.879,11.9V17.4a2.746,2.746,0,0,0,3.662,2.589V30.335a.916.916,0,0,0,.916.916h7.324a.916.916,0,0,0,.916-.916V19.985A2.746,2.746,0,0,0,47.359,17.4V11.9A5.193,5.193,0,0,0,42.287,6.717Zm-5-3.055a1.831,1.831,0,1,1,3.662,0V4.883a1.831,1.831,0,1,1-3.662,0ZM45.528,17.4a.916.916,0,0,1-1.831,0V12.513a.916.916,0,0,0-1.831,0V29.42H40.035V21.058a.916.916,0,0,0-1.831,0V29.42H36.372V12.512a.916.916,0,0,0-1.831,0V17.4a.916.916,0,0,1-1.831,0V11.9a3.361,3.361,0,0,1,3.357-3.357h6.1A3.361,3.361,0,0,1,45.528,11.9Z" transform="translate(-30.879 0)" fill="#e43927"/>
  <path id="Path_1293" data-name="Path 1293" d="M337.949,0h-7.324a.916.916,0,0,0-.916.916v29.42a.916.916,0,0,0,.916.916h7.324a.916.916,0,0,0,.916-.916V.916A.916.916,0,0,0,337.949,0Zm-.916,29.42H331.54V27.528h1.526a.916.916,0,1,0,0-1.831H331.54V23.865h2.747a.916.916,0,1,0,0-1.831H331.54V20.2h1.526a.916.916,0,1,0,0-1.831H331.54V16.541h2.747a.916.916,0,1,0,0-1.831H331.54V12.879h1.526a.916.916,0,0,0,0-1.831H331.54V9.217h2.747a.916.916,0,1,0,0-1.831H331.54V5.554h1.526a.916.916,0,0,0,0-1.831H331.54V1.831h5.493Z" transform="translate(-311.398 0)" fill="#e43927"/>
</svg>
