<svg xmlns="http://www.w3.org/2000/svg" width="24.405" height="26" viewBox="0 0 24.405 26">
  <g id="medicine" transform="translate(0)">
    <g id="Group_156" data-name="Group 156" transform="translate(5.049 6.364)">
      <g id="Group_155" data-name="Group 155">
        <path id="Path_1336" data-name="Path 1336" d="M116.269,125.994a.573.573,0,1,0,.574.573A.574.574,0,0,0,116.269,125.994Z" transform="translate(-115.696 -125.994)" fill="#54ac47"/>
      </g>
    </g>
    <g id="Group_158" data-name="Group 158" transform="translate(5.396 13.427)">
      <g id="Group_157" data-name="Group 157">
        <path id="Path_1337" data-name="Path 1337" d="M130.857,275.28h-1.72v-1.72a.573.573,0,0,0-1.147,0v1.72h-1.72a.573.573,0,1,0,0,1.147h1.72v1.72a.573.573,0,1,0,1.147,0v-1.72h1.72a.573.573,0,1,0,0-1.147Z" transform="translate(-125.696 -272.986)" fill="#54ac47"/>
      </g>
    </g>
    <g id="Group_160" data-name="Group 160">
      <g id="Group_159" data-name="Group 159">
        <path id="Path_1338" data-name="Path 1338" d="M39.562,16.351a4.06,4.06,0,0,0-5.549-1.487L31.95,16.055v-4.41a2.557,2.557,0,0,0-.508-1.523L28.9,6.737V5.3a1.526,1.526,0,0,0,1.016-1.436V1.523A1.525,1.525,0,0,0,28.4,0h-9.14a1.525,1.525,0,0,0-1.523,1.523V3.859A1.526,1.526,0,0,0,18.748,5.3V6.737l-2.539,3.385a2.557,2.557,0,0,0-.508,1.523v9.834a2.542,2.542,0,0,0,2.539,2.539H26.4a4.058,4.058,0,0,0,5.518,1.436L38.075,21.9A4.065,4.065,0,0,0,39.562,16.351ZM18.748,1.523a.508.508,0,0,1,.508-.508H28.4a.508.508,0,0,1,.508.508V3.859a.508.508,0,0,1-.508.508h-9.14a.508.508,0,0,1-.508-.508V1.523Zm-1.726,9.208,2.64-3.52a.508.508,0,0,0,.1-.3V5.383h8.125V6.4h-4.57a.508.508,0,0,0,0,1.016h4.824l2.488,3.317a1.536,1.536,0,0,1,.294.745h-14.2A1.536,1.536,0,0,1,17.021,10.731ZM18.24,23a1.525,1.525,0,0,1-1.523-1.523v-.513h9.226A4.069,4.069,0,0,0,25.967,23H18.24Zm8.1-3.047H16.717V12.492H30.935v4.149l-3.078,1.777A4.032,4.032,0,0,0,26.341,19.956Zm5.07,4.619A3.047,3.047,0,1,1,28.364,19.3l2.756-1.591,3.047,5.277Zm6.156-3.554-2.521,1.455L32,17.2l2.521-1.455a3.047,3.047,0,1,1,3.047,5.277Z" transform="translate(-15.701)" fill="#54ac47"/>
      </g>
    </g>
  </g>
</svg>
