<svg xmlns="http://www.w3.org/2000/svg" width="55.381" height="59" viewBox="0 0 55.381 59">
  <g id="medicine" transform="translate(0)">
    <g id="Group_156" data-name="Group 156" transform="translate(11.523 14.519)">
      <g id="Group_155" data-name="Group 155">
        <path id="Path_1336" data-name="Path 1336" d="M116.848,125.994A1.152,1.152,0,1,0,118,127.146,1.153,1.153,0,0,0,116.848,125.994Z" transform="translate(-115.696 -125.994)" fill="#54ac47"/>
      </g>
    </g>
    <g id="Group_158" data-name="Group 158" transform="translate(12.675 31.457)">
      <g id="Group_157" data-name="Group 157">
        <path id="Path_1337" data-name="Path 1337" d="M136.067,277.6H132.61v-3.457a1.152,1.152,0,1,0-2.3,0V277.6h-3.457a1.152,1.152,0,1,0,0,2.3h3.457v3.457a1.152,1.152,0,1,0,2.3,0V279.9h3.457a1.152,1.152,0,1,0,0-2.3Z" transform="translate(-125.696 -272.986)" fill="#54ac47"/>
      </g>
    </g>
    <g id="Group_160" data-name="Group 160">
      <g id="Group_159" data-name="Group 159">
        <path id="Path_1338" data-name="Path 1338" d="M69.847,37.1A9.213,9.213,0,0,0,57.255,33.73l-4.681,2.7V26.425a5.8,5.8,0,0,0-1.152-3.457l-5.761-7.682V12.016a3.462,3.462,0,0,0,2.3-3.259v-5.3A3.461,3.461,0,0,0,44.508,0H23.767A3.461,3.461,0,0,0,20.31,3.457v5.3a3.463,3.463,0,0,0,2.3,3.259v3.271l-5.762,7.682A5.8,5.8,0,0,0,15.7,26.425V48.742A5.768,5.768,0,0,0,21.462,54.5H39.981A9.209,9.209,0,0,0,52.5,57.762L66.473,49.7A9.225,9.225,0,0,0,69.847,37.1ZM22.615,3.457A1.154,1.154,0,0,1,23.767,2.3H44.508A1.154,1.154,0,0,1,45.66,3.457v5.3A1.154,1.154,0,0,1,44.508,9.91H23.767a1.154,1.154,0,0,1-1.152-1.152v-5.3ZM18.7,24.351l5.992-7.989a1.152,1.152,0,0,0,.23-.691V12.214H43.356v2.3H32.985a1.152,1.152,0,0,0,0,2.3H43.932l5.646,7.527a3.487,3.487,0,0,1,.667,1.691H18.03A3.485,3.485,0,0,1,18.7,24.351ZM21.462,52.2a3.461,3.461,0,0,1-3.457-3.457V47.578H38.941A9.233,9.233,0,0,0,39,52.2H21.462Zm18.382-6.914H18.006V28.346H50.27v9.416L43.284,41.8A9.15,9.15,0,0,0,39.845,45.285ZM51.35,55.766a6.914,6.914,0,1,1-6.914-11.975l6.255-3.611,6.914,11.975ZM65.321,47.7,59.6,51,52.687,39.028l5.72-3.3A6.914,6.914,0,1,1,65.321,47.7Z" transform="translate(-15.701)" fill="#54ac47"/>
      </g>
    </g>
  </g>
</svg>
