<svg xmlns="http://www.w3.org/2000/svg" width="37.463" height="36" viewBox="0 0 37.463 36">
  <g id="morning" transform="translate(0 -10)">
    <path id="Path_1206" data-name="Path 1206" d="M33.122,27.268H36A1.463,1.463,0,0,1,36,30.2H33.122a1.463,1.463,0,1,1,0-2.927ZM1.463,30.2H4.341a1.463,1.463,0,1,0,0-2.927H1.463a1.463,1.463,0,1,0,0,2.927ZM18.732,15.8A1.463,1.463,0,0,0,20.2,14.341V11.463a1.463,1.463,0,1,0-2.927,0v2.878A1.463,1.463,0,0,0,18.732,15.8ZM7.521,19.591a1.463,1.463,0,0,0,2.07-2.07L7.556,15.486a1.463,1.463,0,0,0-2.07,2.07Zm22.421,0,2.035-2.035a1.463,1.463,0,1,0-2.07-2.07l-2.035,2.035a1.463,1.463,0,0,0,2.07,2.07Zm7.521,17.775A1.463,1.463,0,0,1,36,38.829H1.463a1.463,1.463,0,1,1,0-2.927H11.612a10.11,10.11,0,1,1,14.239,0H36A1.463,1.463,0,0,1,37.463,37.366ZM18.318,35.9h.828a7.183,7.183,0,1,0-.828,0Zm11.926,7.171H7.22A1.463,1.463,0,0,0,7.22,46H30.244a1.463,1.463,0,0,0,0-2.927Z" fill="#e43927"/>
  </g>
</svg>
