<svg xmlns="http://www.w3.org/2000/svg" width="21.754" height="25.383" viewBox="0 0 21.754 25.383">
  <g id="note" transform="translate(-8.011 -3.999)">
    <path id="path3683" d="M10.729,4A2.72,2.72,0,0,0,8.011,6.721V26.66a2.72,2.72,0,0,0,2.718,2.722H27.046a2.714,2.714,0,0,0,2.718-2.722V6.721A2.714,2.714,0,0,0,27.046,4H10.729Zm0,1.815H27.046a.907.907,0,0,1,.907.907V26.66a.907.907,0,0,1-.907.907H10.729a.907.907,0,0,1-.9-.907V6.721a.907.907,0,0,1,.9-.907Z" transform="translate(0 0)" fill="#e43927"/>
    <path id="path3679" d="M23.917,18a.911.911,0,0,0-.907.9h0a.911.911,0,0,0,.906.907h6.346a.911.911,0,0,0,.906-.907h0a.91.91,0,0,0-.907-.9Z" transform="translate(-8.201 -7.658)" fill="#e43927"/>
    <path id="path3675" d="M23.917,30h0a.911.911,0,0,0-.906.906v0a.911.911,0,0,0,.906.906h6.346a.911.911,0,0,0,.906-.906v0A.911.911,0,0,0,30.262,30H23.917Z" transform="translate(-8.201 -14.217)" fill="#e43927"/>
    <path id="path3671" d="M23.917,42h0a.911.911,0,0,0-.906.906h0a.911.911,0,0,0,.907.9h6.344a.91.91,0,0,0,.907-.9h0A.911.911,0,0,0,30.262,42H23.917Z" transform="translate(-8.201 -20.781)" fill="#e43927"/>
  </g>
</svg>
