<svg xmlns="http://www.w3.org/2000/svg" width="20.269" height="28.828" viewBox="0 0 20.269 28.828">
  <g id="notification" transform="translate(-76 0)">
    <path id="Path_406" data-name="Path 406" d="M197.142,474.285h4.569a1.142,1.142,0,0,0,0-2.285h-4.569a1.142,1.142,0,0,0,0,2.285Z" transform="translate(-113.292 -445.457)"/>
    <path id="Path_407" data-name="Path 407" d="M86.135,0a1.125,1.125,0,0,0-1.126,1.123v1.2a7.88,7.88,0,0,0-6.756,7.781v6.9a1.008,1.008,0,0,1-.445.9,3.367,3.367,0,0,0,1.571,6.35H92.891a3.367,3.367,0,0,0,1.571-6.35,1.008,1.008,0,0,1-.445-.9v-6.9a7.88,7.88,0,0,0-6.756-7.781v-1.2A1.125,1.125,0,0,0,86.135,0Zm5.63,10.108v6.9a3.208,3.208,0,0,0,1.645,2.882,1.121,1.121,0,0,1-.519,2.118H79.378a1.121,1.121,0,0,1-.519-2.118A3.208,3.208,0,0,0,80.5,17.012v-6.9a5.63,5.63,0,0,1,11.261,0Z" transform="translate(0)"/>
  </g>
</svg>
