<svg xmlns="http://www.w3.org/2000/svg" width="24" height="26.14" viewBox="0 0 24 26.14">
  <g id="order-history" transform="translate(-16.5)">
    <path id="Path_40" data-name="Path 40" d="M85.26,145H81.252a.752.752,0,1,0,0,1.5H85.26a.752.752,0,1,0,0-1.5Z" transform="translate(-60.793 -137.588)" fill="#deb217"/>
    <path id="Path_41" data-name="Path 41" d="M85.26,225H81.252a.752.752,0,1,0,0,1.5H85.26a.752.752,0,1,0,0-1.5Z" transform="translate(-60.793 -213.499)" fill="#deb217"/>
    <path id="Path_42" data-name="Path 42" d="M85.26,305H81.252a.752.752,0,0,0,0,1.5H85.26a.752.752,0,0,0,0-1.5Z" transform="translate(-60.793 -289.41)" fill="#deb217"/>
    <path id="Path_43" data-name="Path 43" d="M35.239,14.036V7.045a3.845,3.845,0,0,0-1.075-2.682L31.114,1.149l0,0A3.747,3.747,0,0,0,28.429,0H18.755A2.279,2.279,0,0,0,16.5,2.3v19.86a2.279,2.279,0,0,0,2.255,2.3H30.371a5.884,5.884,0,0,0,4.117,1.685,6.08,6.08,0,0,0,.752-12.1ZM18,22.158V2.3a.76.76,0,0,1,.752-.766h9.675a2.249,2.249,0,0,1,1.607.685L33.085,5.43l0,0a2.307,2.307,0,0,1,.647,1.611v6.993a6.046,6.046,0,0,0-5.211,6.027,6.129,6.129,0,0,0,.7,2.859H18.755A.76.76,0,0,1,18,22.158Zm16.484,2.451A4.544,4.544,0,1,1,39,20.065,4.507,4.507,0,0,1,34.487,24.609Z" transform="translate(0 0)" fill="#deb217"/>
    <path id="Path_44" data-name="Path 44" d="M333.536,354.176a.752.752,0,0,0-1.059.1l-1.268,1.522-.288-.576a.752.752,0,0,0-1.344.672l.8,1.6a.752.752,0,0,0,1.25.145l2-2.405A.752.752,0,0,0,333.536,354.176Z" transform="translate(-297.314 -335.867)" fill="#deb217"/>
    <path id="Path_45" data-name="Path 45" d="M241.252,146.5h.8a.752.752,0,1,0,0-1.5h-.8a.752.752,0,1,0,0,1.5Z" transform="translate(-212.777 -137.588)" fill="#deb217"/>
    <path id="Path_46" data-name="Path 46" d="M242.8,225.752a.752.752,0,0,0-.752-.752h-.8a.752.752,0,1,0,0,1.5h.8A.752.752,0,0,0,242.8,225.752Z" transform="translate(-212.777 -213.499)" fill="#deb217"/>
  </g>
</svg>
