<svg xmlns="http://www.w3.org/2000/svg" width="24.98" height="24.98" viewBox="0 0 24.98 24.98">
  <g id="OTP" transform="translate(-19.75 -19.75)">
    <path id="Path_1137" data-name="Path 1137" d="M44.135,23.556H33.31V22.005a2.258,2.258,0,0,0-2.256-2.255H22.005a2.258,2.258,0,0,0-2.255,2.255V42.474a2.258,2.258,0,0,0,2.255,2.256h9.049a2.259,2.259,0,0,0,2.256-2.256V34.262H44.135a.6.6,0,0,0,.595-.595V24.151a.6.6,0,0,0-.595-.595ZM31.055,43.54H22.005a1.067,1.067,0,0,1-1.066-1.066V40.923H32.121v1.551a1.068,1.068,0,0,1-1.066,1.066Zm1.066-3.806H20.94V22.005a1.067,1.067,0,0,1,1.066-1.066h9.049a1.067,1.067,0,0,1,1.066,1.066v1.551h-7.97a.6.6,0,0,0-.595.595v9.516a.6.6,0,0,0,.595.595h2.736V37a.595.595,0,0,0,1.015.421l3.156-3.156h1.062ZM43.54,33.073H30.813a.6.6,0,0,0-.421.174l-2.315,2.315V33.667a.6.6,0,0,0-.595-.595H24.746V24.746H43.54Z" transform="translate(0 0)" fill="#e43927"/>
    <path id="Path_1138" data-name="Path 1138" d="M357.657,149.5a.594.594,0,0,0,.812.217l.756-.437v.873a.595.595,0,1,0,1.189,0v-.873l.756.437a.595.595,0,0,0,.595-1.03l-.757-.437.756-.437a.595.595,0,0,0-.595-1.03l-.756.437v-.873a.595.595,0,1,0-1.19,0v.873l-.756-.437a.595.595,0,0,0-.595,1.03l.756.437-.756.437a.594.594,0,0,0-.217.812Z" transform="translate(-319.967 -119.339)" fill="#e43927"/>
    <path id="Path_1139" data-name="Path 1139" d="M249.657,147a.594.594,0,0,0,.217.812l.756.437-.756.437a.595.595,0,0,0,.595,1.03l.756-.437v.873a.595.595,0,0,0,1.19,0v-.873l.756.437a.595.595,0,0,0,.595-1.03l-.756-.437.756-.437a.595.595,0,1,0-.595-1.03l-.756.437v-.873a.595.595,0,1,0-1.19,0v.873l-.756-.437a.593.593,0,0,0-.812.217Z" transform="translate(-217.677 -119.339)" fill="#e43927"/>
    <path id="Path_1140" data-name="Path 1140" d="M145.982,147a.593.593,0,0,0-.812-.217l-.756.437v-.873a.595.595,0,1,0-1.19,0v.873l-.756-.437a.595.595,0,0,0-.595,1.03l.757.437-.756.437a.595.595,0,0,0,.595,1.03l.756-.437v.873a.595.595,0,1,0,1.19,0v-.873l.756.437a.595.595,0,0,0,.595-1.03l-.756-.437.756-.437a.594.594,0,0,0,.217-.812Z" transform="translate(-115.386 -119.339)" fill="#e43927"/>
    <path id="Path_1141" data-name="Path 1141" d="M117.224,433.75h-2.379a.595.595,0,1,0,0,1.19h2.379a.595.595,0,1,0,0-1.19Z" transform="translate(-89.504 -392.113)" fill="#e43927"/>
    <path id="Path_1142" data-name="Path 1142" d="M114.845,56.94h2.379a.595.595,0,1,0,0-1.19h-2.379a.595.595,0,1,0,0,1.19Z" transform="translate(-89.504 -34.097)" fill="#e43927"/>
  </g>
</svg>
