<svg id="password" xmlns="http://www.w3.org/2000/svg" width="21" height="24" viewBox="0 0 21 24">
  <g id="Group_2" data-name="Group 2">
    <circle id="Ellipse_1" data-name="Ellipse 1" cx="0.949" cy="0.949" r="0.949" transform="translate(14.736 15.307)" fill="#e43927"/>
    <path id="Path_2" data-name="Path 2" d="M52.063,16.969A.937.937,0,0,0,53,16.031V12.563a3.754,3.754,0,0,0-3.75-3.75H48.123V5.506a5.626,5.626,0,0,0-11.25,0V8.813H35.75A3.754,3.754,0,0,0,32,12.563V20.25A3.754,3.754,0,0,0,35.75,24h13.5A3.754,3.754,0,0,0,53,20.25a.938.938,0,0,0-1.875,0,1.877,1.877,0,0,1-1.875,1.875H35.75a1.877,1.877,0,0,1-1.875-1.875V12.563a1.877,1.877,0,0,1,1.875-1.875h13.5a1.877,1.877,0,0,1,1.875,1.875v3.469A.937.937,0,0,0,52.063,16.969ZM46.248,8.813h-7.5V5.506a3.752,3.752,0,0,1,7.5,0Z" transform="translate(-32)" fill="#e43927"/>
    <ellipse id="Ellipse_2" data-name="Ellipse 2" cx="1.266" cy="0.949" rx="1.266" ry="0.949" transform="translate(7.605 15.307)" fill="#e43927"/>
    <circle id="Ellipse_3" data-name="Ellipse 3" cx="0.949" cy="0.949" r="0.949" transform="translate(4.366 15.307)" fill="#e43927"/>
    <circle id="Ellipse_4" data-name="Ellipse 4" cx="0.949" cy="0.949" r="0.949" transform="translate(11.461 15.307)" fill="#e43927"/>
  </g>
</svg>
