<svg xmlns="http://www.w3.org/2000/svg" width="24" height="17.784" viewBox="0 0 24 17.784">
  <g id="patient-registration" transform="translate(-0.995 -4.999)">
    <path id="Path_1171" data-name="Path 1171" d="M14.877,13.623a4.144,4.144,0,0,0,3.951-4.312A4.143,4.143,0,0,0,14.877,5a4.143,4.143,0,0,0-3.951,4.312A4.148,4.148,0,0,0,14.877,13.623Zm0-6.878a2.466,2.466,0,0,1,2.352,2.567,2.466,2.466,0,0,1-2.352,2.567,2.466,2.466,0,0,1-2.352-2.567,2.47,2.47,0,0,1,2.352-2.567Z" transform="translate(-1.989 0)" fill="#ffffff"/>
    <path id="Path_1172" data-name="Path 1172" d="M5.772,16.817A3.187,3.187,0,0,0,8.811,13.5a3.187,3.187,0,0,0-3.039-3.316A3.187,3.187,0,0,0,2.733,13.5a3.187,3.187,0,0,0,3.039,3.316Zm0-4.887a1.577,1.577,0,0,1,0,3.142,1.577,1.577,0,0,1,0-3.142Z" transform="translate(-0.348 -1.17)" fill="#ffffff"/>
    <path id="Path_1173" data-name="Path 1173" d="M24.439,16.817A3.187,3.187,0,0,0,27.478,13.5a3.187,3.187,0,0,0-3.039-3.316A3.187,3.187,0,0,0,21.4,13.5a3.187,3.187,0,0,0,3.039,3.316Zm0-4.887A1.577,1.577,0,1,1,23,13.5,1.509,1.509,0,0,1,24.439,11.93Z" transform="translate(-4.087 -1.17)" fill="#ffffff"/>
    <path id="Path_1174" data-name="Path 1174" d="M20.458,18.793a4.768,4.768,0,0,0-2,.448,6.974,6.974,0,0,0-10.919,0,4.768,4.768,0,0,0-2-.448C2.912,18.9.888,20.807,1,23.056a.75.75,0,0,0,.8.687.75.75,0,0,0,.8-.687,2.9,2.9,0,0,1,2.933-2.89,2.958,2.958,0,0,1,1.261.288,6.074,6.074,0,0,0-.569,2.562.75.75,0,0,0,.8.687.75.75,0,0,0,.8-.687,5.174,5.174,0,0,1,10.343,0,.809.809,0,0,0,1.6,0,6.074,6.074,0,0,0-.569-2.562,2.958,2.958,0,0,1,1.261-.288,2.9,2.9,0,0,1,2.933,2.89.809.809,0,0,0,1.6,0c.111-2.249-1.913-4.153-4.532-4.263Z" transform="translate(0 -0.96)" fill="#ffffff"/>
  </g>
</svg>
