<svg id="prescriptions" xmlns="http://www.w3.org/2000/svg" width="19.805" height="26" viewBox="0 0 19.805 26">
  <path id="Path_1122" data-name="Path 1122" d="M79.931,5.4,75.035.764A2.782,2.782,0,0,0,73.115,0H63.793A2.8,2.8,0,0,0,61,2.793V23.207A2.8,2.8,0,0,0,63.793,26H78.012A2.8,2.8,0,0,0,80.8,23.207V7.425A2.8,2.8,0,0,0,79.931,5.4Zm-1.48.7H74.66a.254.254,0,0,1-.254-.254V2.267Zm-.44,18.383H63.793a1.271,1.271,0,0,1-1.27-1.27V2.793a1.271,1.271,0,0,1,1.27-1.27h9.09V5.84A1.779,1.779,0,0,0,74.66,7.617h4.621v15.59A1.271,1.271,0,0,1,78.012,24.477Z" transform="translate(-61 0)" fill="#fff"/>
  <path id="Path_1123" data-name="Path 1123" d="M139.329,200H128.723a.839.839,0,0,0,0,1.661h10.606a.839.839,0,0,0,0-1.661Z" transform="translate(-124.29 -189.901)" fill="#fff"/>
  <path id="Path_1124" data-name="Path 1124" d="M139.329,280H128.723a.839.839,0,0,0,0,1.661h10.606a.839.839,0,0,0,0-1.661Z" transform="translate(-124.29 -265.861)" fill="#fff"/>
  <path id="Path_1125" data-name="Path 1125" d="M132.857,360h-4.027a.831.831,0,1,0,0,1.661h4.027a.831.831,0,1,0,0-1.661Z" transform="translate(-124.708 -341.822)" fill="#fff"/>
</svg>
