<svg xmlns="http://www.w3.org/2000/svg" width="29.5" height="29.498" viewBox="0 0 29.5 29.498">
  <g id="Prescribe-prescription" transform="translate(0.25 0.235)">
    <g id="Group_198" data-name="Group 198" transform="translate(8.803 6.554)">
      <g id="Group_197" data-name="Group 197">
        <path id="Path_1389" data-name="Path 1389" d="M160.127,117.537h-1.505v-1.505a.566.566,0,1,0-1.133,0v1.505h-1.505a.566.566,0,0,0,0,1.133h1.505v1.505a.566.566,0,1,0,1.133,0V118.67h1.505a.566.566,0,0,0,0-1.133Z" transform="translate(-155.418 -115.466)" fill="#05807d" stroke="#05807d" stroke-width="0.5"/>
      </g>
    </g>
    <g id="Group_200" data-name="Group 200" transform="translate(6.457 4.208)">
      <g id="Group_199" data-name="Group 199">
        <path id="Path_1390" data-name="Path 1390" d="M118.976,74.042a4.984,4.984,0,1,0,4.984,4.984A4.99,4.99,0,0,0,118.976,74.042Zm0,8.835a3.851,3.851,0,1,1,3.851-3.851A3.856,3.856,0,0,1,118.976,82.877Z" transform="translate(-113.992 -74.042)" fill="#05807d" stroke="#05807d" stroke-width="0.5"/>
      </g>
    </g>
    <g id="Group_202" data-name="Group 202" transform="translate(0 0.015)">
      <g id="Group_201" data-name="Group 201" transform="translate(0 0)">
        <path id="Path_1391" data-name="Path 1391" d="M22.715,5.222,17.675.181a.567.567,0,0,0-.4-.166H1.7A1.7,1.7,0,0,0,0,1.714v25.6a1.7,1.7,0,0,0,1.7,1.7H12.518a.566.566,0,1,0,0-1.133H1.7a.567.567,0,0,1-.566-.566V1.714A.567.567,0,0,1,1.7,1.148H16.708V4.489a1.7,1.7,0,0,0,1.7,1.7h3.342V16.27a.566.566,0,1,0,1.133,0V5.622A.566.566,0,0,0,22.715,5.222Zm-4.308-.166a.567.567,0,0,1-.566-.566V1.949l3.107,3.107H18.407Z" transform="translate(0 -0.015)" fill="#05807d" stroke="#05807d" stroke-width="0.5"/>
      </g>
    </g>
    <g id="Group_204" data-name="Group 204" transform="translate(8.288 15.873)">
      <g id="Group_203" data-name="Group 203">
        <path id="Path_1392" data-name="Path 1392" d="M156.726,280H146.89a.566.566,0,1,0,0,1.133h9.836a.566.566,0,1,0,0-1.133Z" transform="translate(-146.324 -279.998)" fill="#05807d" stroke="#05807d" stroke-width="0.5"/>
      </g>
    </g>
    <g id="Group_206" data-name="Group 206" transform="translate(3.625 15.873)">
      <g id="Group_205" data-name="Group 205">
        <path id="Path_1393" data-name="Path 1393" d="M66.408,280H64.562a.566.566,0,1,0,0,1.133h1.845a.566.566,0,1,0,0-1.133Z" transform="translate(-63.996 -279.998)" fill="#05807d" stroke="#05807d" stroke-width="0.5"/>
      </g>
    </g>
    <g id="Group_208" data-name="Group 208" transform="translate(8.288 19.045)">
      <g id="Group_207" data-name="Group 207">
        <path id="Path_1394" data-name="Path 1394" d="M152.535,335.994H146.89a.566.566,0,1,0,0,1.133h5.645a.566.566,0,1,0,0-1.133Z" transform="translate(-146.324 -335.994)" fill="#05807d" stroke="#05807d" stroke-width="0.5"/>
      </g>
    </g>
    <g id="Group_210" data-name="Group 210" transform="translate(3.625 19.045)">
      <g id="Group_209" data-name="Group 209">
        <path id="Path_1395" data-name="Path 1395" d="M66.408,335.994H64.562a.566.566,0,1,0,0,1.133h1.845a.566.566,0,1,0,0-1.133Z" transform="translate(-63.996 -335.994)" fill="#05807d" stroke="#05807d" stroke-width="0.5"/>
      </g>
    </g>
    <g id="Group_212" data-name="Group 212" transform="translate(8.288 22.217)">
      <g id="Group_211" data-name="Group 211">
        <path id="Path_1396" data-name="Path 1396" d="M147.287,392.157a.566.566,0,1,0,.166.4A.57.57,0,0,0,147.287,392.157Z" transform="translate(-146.32 -391.991)" fill="#05807d" stroke="#05807d" stroke-width="0.5"/>
      </g>
    </g>
    <g id="Group_214" data-name="Group 214" transform="translate(3.625 22.217)">
      <g id="Group_213" data-name="Group 213">
        <path id="Path_1397" data-name="Path 1397" d="M66.408,391.991H64.562a.566.566,0,1,0,0,1.133h1.845a.566.566,0,1,0,0-1.133Z" transform="translate(-63.996 -391.991)" fill="#05807d" stroke="#05807d" stroke-width="0.5"/>
      </g>
    </g>
    <g id="Group_216" data-name="Group 216" transform="translate(13.639 17.505)">
      <g id="Group_215" data-name="Group 215">
        <path id="Path_1398" data-name="Path 1398" d="M252.651,313.286a3.511,3.511,0,0,0-.49.035,3.511,3.511,0,0,0-5.846-3.492l-4.485,4.485a3.512,3.512,0,0,0,4.966,4.966l2.347-2.347a3.511,3.511,0,1,0,3.508-3.648ZM246,318.48a2.379,2.379,0,1,1-3.364-3.364l1.842-1.842,3.364,3.364Zm2.643-2.643-3.364-3.364,1.842-1.842a2.379,2.379,0,1,1,3.364,3.364Zm3.446,3.271a2.378,2.378,0,0,1,0-4.62Zm1.133,0v-4.62a2.378,2.378,0,0,1,0,4.62Z" transform="translate(-240.802 -308.801)" fill="#05807d" stroke="#05807d" stroke-width="0.5"/>
      </g>
    </g>
  </g>
</svg>
