<svg xmlns="http://www.w3.org/2000/svg" width="28.017" height="26" viewBox="0 0 28.017 26">
  <g id="red-flag-video" transform="translate(-1 -2.08)">
    <path id="Path_1300" data-name="Path 1300" d="M19.1,28.863H3.447A2.447,2.447,0,0,1,1,26.416V16.367A2.447,2.447,0,0,1,3.447,13.92H19.1a2.447,2.447,0,0,1,2.447,2.447V26.416A2.447,2.447,0,0,1,19.1,28.863ZM3.447,15.788a.588.588,0,0,0-.579.579V26.416a.588.588,0,0,0,.579.579H19.1a.588.588,0,0,0,.579-.579V16.367a.588.588,0,0,0-.579-.579Z" transform="translate(0 -0.783)" fill="#fff"/>
    <path id="Path_1301" data-name="Path 1301" d="M27.986,26.928a2.363,2.363,0,0,1-1.037-.243L21,23.781V19.307l5.94-2.9a2.363,2.363,0,0,1,3.4,2.12v6.042a2.363,2.363,0,0,1-2.353,2.363Zm-5.118-4.315L27.761,25a.495.495,0,0,0,.71-.439V18.523a.495.495,0,0,0-.71-.439l-4.894,2.391Z" transform="translate(-1.322 -0.931)" fill="#fff"/>
    <circle id="Ellipse_110" data-name="Ellipse 110" cx="0.934" cy="0.934" r="0.934" transform="translate(12.207 19.675)" fill="#fff"/>
    <circle id="Ellipse_111" data-name="Ellipse 111" cx="0.934" cy="0.934" r="0.934" transform="translate(8.471 19.675)" fill="#fff"/>
    <path id="Path_1302" data-name="Path 1302" d="M5.67,11.419a4.67,4.67,0,1,1,4.67-4.67,4.67,4.67,0,0,1-4.67,4.67Zm0-7.471a2.8,2.8,0,1,0,2.8,2.8,2.8,2.8,0,0,0-2.8-2.8Z" transform="translate(0)" fill="#fff"/>
    <path id="Path_1303" data-name="Path 1303" d="M16.67,11.419a4.67,4.67,0,1,1,4.67-4.67,4.67,4.67,0,0,1-4.67,4.67Zm0-7.471a2.8,2.8,0,1,0,2.8,2.8,2.8,2.8,0,0,0-2.8-2.8Z" transform="translate(-0.727)" fill="#fff"/>
  </g>
</svg>
