<svg xmlns="http://www.w3.org/2000/svg" width="27.846" height="22.528" viewBox="0 0 27.846 22.528">
  <g id="Refresh" transform="translate(0)">
    <path id="Path_1361" data-name="Path 1361" d="M28.165,15.008l-2.689-3.8a1.393,1.393,0,0,0-1.942-.332l-3.8,2.689a1.392,1.392,0,1,0,1.61,2.272l1.272-.9A8.448,8.448,0,0,1,8.087,18.06a1.393,1.393,0,0,0-2.124,1.8A11.167,11.167,0,0,0,14.5,23.8a11.312,11.312,0,0,0,9.093-4.621,11.176,11.176,0,0,0,1.687-3.433l.613.866a1.393,1.393,0,0,0,2.273-1.609Z" transform="translate(-0.575 -1.277)" fill="#E43927"/>
    <path id="Path_1362" data-name="Path 1362" d="M11.016,12.207a1.392,1.392,0,0,0-1.941-.332l-1.272.9A8.448,8.448,0,0,1,22.335,9.654a1.393,1.393,0,0,0,2.124-1.8A11.168,11.168,0,0,0,15.923,3.91,11.315,11.315,0,0,0,6.829,8.53a11.172,11.172,0,0,0-1.687,3.434L4.529,11.1a1.392,1.392,0,1,0-2.273,1.608l2.689,3.8a1.393,1.393,0,0,0,1.941.332l3.8-2.689a1.393,1.393,0,0,0,.332-1.941Z" transform="translate(-2 -3.91)" fill="#E43927"/>
  </g>
</svg>
