<svg xmlns="http://www.w3.org/2000/svg" width="18.305" height="23.362" viewBox="0 0 18.305 23.362">
  <path id="register-patient" d="M72.232,15.242a4.755,4.755,0,0,0-3.089-1.953c-1.039-.279-1.632-.439-1.78-1.678.029-.025.058-.049.086-.074A3.945,3.945,0,0,0,68.64,9.5a.545.545,0,0,0,.125-.131c2.067-3.078,1.4-5.374.826-6.468A5.721,5.721,0,0,0,64.57,0h-.007a5.721,5.721,0,0,0-5.022,2.9c-.579,1.094-1.241,3.39.826,6.468a.546.546,0,0,0,.126.132,3.945,3.945,0,0,0,1.191,2.04c.028.025.057.049.086.074-.148,1.239-.741,1.4-1.78,1.678A4.755,4.755,0,0,0,56.9,15.242c-1,1.482-1.487,3.959-1.487,7.573a.548.548,0,0,0,.548.548h17.21a.548.548,0,0,0,.548-.548C73.719,19.2,73.233,16.724,72.232,15.242ZM60.983,4.483A4.4,4.4,0,0,0,60.374,7a4.378,4.378,0,0,1,.135-3.587,4.715,4.715,0,0,1,8.115,0,4.37,4.37,0,0,1,.144,3.563c-.043-1.4-.226-2.123-.621-2.507a1.762,1.762,0,0,0-1.87-.139,4.72,4.72,0,0,1-3.445.014C62.5,4.186,61.452,3.867,60.983,4.483Zm.473,3.851s0-.006,0-.01c-.041-2.36.179-2.935.308-3.074.056-.061.484.064.756.14a6.8,6.8,0,0,0,4.072-.015c.278-.078.593-.293.774-.143.147.122.353.719.311,3.092,0,0,0,.006,0,.01a3.111,3.111,0,1,1-6.221,0Zm5.46,5.03-2.35,2.482-2.35-2.482a2.631,2.631,0,0,0,.551-1.126,4.518,4.518,0,0,0,3.6,0A2.632,2.632,0,0,0,66.916,13.364Zm3.668,8.9V19.6a.548.548,0,1,0-1.1,0v2.667H59.644V19.6a.548.548,0,1,0-1.1,0v2.667H56.513c.044-3.087.469-5.189,1.3-6.413a3.734,3.734,0,0,1,2.465-1.508,6.782,6.782,0,0,0,1.088-.36l2.806,2.964a.523.523,0,0,0,.381.164h.035a.523.523,0,0,0,.381-.164l2.806-2.964a6.782,6.782,0,0,0,1.088.36,3.734,3.734,0,0,1,2.465,1.508c.826,1.224,1.251,3.325,1.3,6.413Z" transform="translate(-55.414 0)" fill="#e43927"/>
</svg>
