<svg xmlns="http://www.w3.org/2000/svg" width="33" height="33" viewBox="0 0 33 33">
  <g id="Remove" transform="translate(0.105 0.085)">
    <circle id="Ellipse_28" data-name="Ellipse 28" cx="16.5" cy="16.5" r="16.5" transform="translate(-0.105 -0.085)" fill="#e43927"/>
    <g id="cancel" transform="translate(10.121 10.965)">
      <g id="Group_32" data-name="Group 32" transform="translate(0 0)">
        <path id="Path_405" data-name="Path 405" d="M7.205,5.92,11.62,1.5a.647.647,0,0,0,0-.913L11.233.2a.647.647,0,0,0-.914,0L5.9,4.62,1.489.2A.647.647,0,0,0,.576.2L.189.591a.646.646,0,0,0,0,.913L4.6,5.92.189,10.335a.648.648,0,0,0,0,.914l.387.387a.647.647,0,0,0,.913,0L5.9,7.22l4.415,4.415a.641.641,0,0,0,.457.189h0a.641.641,0,0,0,.457-.189l.387-.387a.648.648,0,0,0,0-.913Z" transform="translate(0 -0.016)" fill="#fff"/>
      </g>
    </g>
  </g>
</svg>
