<svg xmlns="http://www.w3.org/2000/svg" width="14" height="14" viewBox="0 0 14 14">
  <g id="remove" transform="translate(4 4)">
    <path id="Remove-2" data-name="Remove" d="M7,0A7,7,0,1,1,0,7,7,7,0,0,1,7,0Z" transform="translate(-4 -4)" fill="#e43927"/>
    <path id="Path_1254" data-name="Path 1254" d="M3.661,3.016,5.9.772a.329.329,0,0,0,0-.464l-.2-.2a.329.329,0,0,0-.464,0L3,2.355.757.112a.329.329,0,0,0-.464,0l-.2.2A.328.328,0,0,0,.1.772L2.339,3.016.1,5.259a.329.329,0,0,0,0,.464l.2.2a.329.329,0,0,0,.464,0L3,3.676,5.243,5.92a.326.326,0,0,0,.232.1h0a.326.326,0,0,0,.232-.1l.2-.2a.329.329,0,0,0,0-.464Z" transform="translate(0 -0.016)" fill="#fff"/>
  </g>
</svg>
