<svg xmlns="http://www.w3.org/2000/svg" width="24.609" height="28" viewBox="0 0 24.609 28">
  <g id="scribe-management" transform="translate(-31)">
    <path id="Path_1163" data-name="Path 1163" d="M40.023,392H33.461A2.464,2.464,0,0,0,31,394.461v4.1H42.484v-4.1A2.464,2.464,0,0,0,40.023,392Zm.82,4.922h-8.2v-2.461a.821.821,0,0,1,.82-.82h6.563a.821.821,0,0,1,.82.82Z" transform="translate(0 -370.562)" fill="#54ac47"/>
    <path id="Path_1164" data-name="Path 1164" d="M82.563,275.281a3.281,3.281,0,1,0-3.281,3.281A3.285,3.285,0,0,0,82.563,275.281Zm-3.281,1.641a1.641,1.641,0,1,1,1.641-1.641A1.642,1.642,0,0,1,79.281,276.922Z" transform="translate(-42.539 -257.125)" fill="#54ac47"/>
    <path id="Path_1165" data-name="Path 1165" d="M280.023,392h-6.563A2.464,2.464,0,0,0,271,394.461v4.1h11.484v-4.1A2.464,2.464,0,0,0,280.023,392Zm.82,4.922h-8.2v-2.461a.821.821,0,0,1,.82-.82h6.563a.821.821,0,0,1,.82.82Z" transform="translate(-226.875 -370.562)" fill="#54ac47"/>
    <path id="Path_1166" data-name="Path 1166" d="M322.562,275.281a3.281,3.281,0,1,0-3.281,3.281A3.285,3.285,0,0,0,322.562,275.281Zm-3.281,1.641a1.641,1.641,0,1,1,1.641-1.641A1.643,1.643,0,0,1,319.281,276.922Z" transform="translate(-269.414 -257.125)" fill="#54ac47"/>
    <path id="Path_1167" data-name="Path 1167" d="M65.922,9.844v3.688l4.4-3.688h2.685l4.4,3.688V9.844a4.922,4.922,0,1,0,0-9.844H65.922a4.922,4.922,0,1,0,0,9.844Zm0-8.2H77.406a3.281,3.281,0,1,1,0,6.563H75.766v1.813L73.6,8.2H69.725l-2.162,1.813V8.2H65.922a3.281,3.281,0,1,1,0-6.563Z" transform="translate(-28.359)" fill="#54ac47"/>
    <path id="Path_1168" data-name="Path 1168" d="M241,75h1.641v1.641H241Z" transform="translate(-198.516 -70.898)" fill="#54ac47"/>
    <path id="Path_1169" data-name="Path 1169" d="M181,75h1.641v1.641H181Z" transform="translate(-141.797 -70.898)" fill="#54ac47"/>
    <path id="Path_1170" data-name="Path 1170" d="M301,75h1.641v1.641H301Z" transform="translate(-255.234 -70.898)" fill="#54ac47"/>
  </g>
</svg>
