<svg xmlns="http://www.w3.org/2000/svg" width="23.926" height="29.11" viewBox="0 0 23.926 29.11">
  <path id="Self_Assessment_form_" data-name="Self Assessment form " d="M9.24,2A3.247,3.247,0,0,0,6,5.24V27.27a3.247,3.247,0,0,0,3.24,3.24h6.48a.648.648,0,0,0,0-1.3H9.24A1.926,1.926,0,0,1,7.3,27.27V5.24A1.926,1.926,0,0,1,9.24,3.3H20.579V7.724A2.061,2.061,0,0,0,22.63,9.775h4.1v9.719a.648.648,0,1,0,1.3,0V9.127a.648.648,0,0,0-.166-.434l-5.832-6.48A.648.648,0,0,0,21.551,2ZM21.875,3.977l4.052,4.5h-3.3a.74.74,0,0,1-.756-.756ZM9.889,11.071a.648.648,0,0,0,0,1.3h7.773a.648.648,0,1,0,0-1.3Zm0,3.888a.648.648,0,1,0,0,1.3H23.495a.648.648,0,1,0,0-1.3Zm0,3.888a.648.648,0,1,0,0,1.3h7.774a.648.648,0,0,0,0-1.3Zm13.98,1.131a2.856,2.856,0,0,0-2.062,4.841,5.462,5.462,0,0,0-3.394,5.043.648.648,0,1,0,1.3,0,4.16,4.16,0,0,1,8.321,0,.648.648,0,1,0,1.3,0,5.462,5.462,0,0,0-3.394-5.043,2.856,2.856,0,0,0-2.063-4.841Zm0,1.3A1.569,1.569,0,1,1,22.3,22.843a1.56,1.56,0,0,1,1.568-1.569Zm-13.98,1.46a.648.648,0,1,0,0,1.3h7.774a.648.648,0,1,0,0-1.3Z" transform="translate(-5.7 -1.7)" fill="#a5b502" stroke="#a5b502" stroke-width="0.6"/>
</svg>
