<svg id="Symptoms" xmlns="http://www.w3.org/2000/svg" width="56" height="56" viewBox="0 0 56 56">
  <path id="Path_1311" data-name="Path 1311" d="M209.282,226a1.094,1.094,0,0,0-.9.472c-.716,1.036-2.381,3.6-2.381,5a3.281,3.281,0,0,0,6.563,0c0-1.4-1.665-3.96-2.381-5A1.094,1.094,0,0,0,209.282,226Zm0,6.563a1.1,1.1,0,0,1-1.094-1.093,8.172,8.172,0,0,1,1.094-2.349,8.165,8.165,0,0,1,1.094,2.349A1.1,1.1,0,0,1,209.282,232.564Z" transform="translate(-183.47 -201.282)" fill="#3190cf"/>
  <path id="Path_1312" data-name="Path 1312" d="M169.282,306a1.094,1.094,0,0,0-.9.472c-.716,1.036-2.381,3.6-2.381,5a3.281,3.281,0,1,0,6.562,0c0-1.4-1.665-3.96-2.381-5A1.094,1.094,0,0,0,169.282,306Zm0,6.562a1.1,1.1,0,0,1-1.094-1.093,8.171,8.171,0,0,1,1.094-2.349,8.164,8.164,0,0,1,1.094,2.349A1.1,1.1,0,0,1,169.282,312.563Z" transform="translate(-147.845 -272.532)" fill="#3190cf"/>
  <path id="Path_1313" data-name="Path 1313" d="M87.456,10.832a1.094,1.094,0,1,0,1.213-1.82,1.535,1.535,0,0,1,0-2.555,3.751,3.751,0,0,0,1.658-3.136A3.751,3.751,0,0,0,88.669.184,1.094,1.094,0,1,0,87.456,2a1.548,1.548,0,0,1,.683,1.316,1.548,1.548,0,0,1-.684,1.316,3.723,3.723,0,0,0,0,6.195Z" transform="translate(-76.414 -0.001)" fill="#3190cf"/>
  <path id="Path_1314" data-name="Path 1314" d="M137.456,10.832a1.094,1.094,0,0,0,1.213-1.82,1.535,1.535,0,0,1,0-2.555,3.751,3.751,0,0,0,1.658-3.136A3.751,3.751,0,0,0,138.669.184,1.094,1.094,0,0,0,137.456,2a1.548,1.548,0,0,1,.683,1.316,1.548,1.548,0,0,1-.684,1.316,3.723,3.723,0,0,0,0,6.195Z" transform="translate(-120.945 -0.001)" fill="#3190cf"/>
  <path id="Path_1315" data-name="Path 1315" d="M187.456,10.832a1.094,1.094,0,1,0,1.213-1.82,1.535,1.535,0,0,1,0-2.555,3.751,3.751,0,0,0,1.658-3.136A3.751,3.751,0,0,0,188.669.184,1.094,1.094,0,1,0,187.456,2a1.548,1.548,0,0,1,.683,1.316,1.548,1.548,0,0,1-.684,1.316,3.723,3.723,0,0,0,0,6.195Z" transform="translate(-165.476 -0.001)" fill="#3190cf"/>
  <path id="Path_1316" data-name="Path 1316" d="M4.376,167.126A1.094,1.094,0,0,0,5.47,168.22H23.626a1.094,1.094,0,0,0,1.094-1.094v-3.988c.363.033.728.051,1.094.051h6.562a1.094,1.094,0,0,0,1.094-1.094v-8.074l3.77-1.885a1.094,1.094,0,0,0,.421-1.585l-4.191-6.287v-1.856a16.288,16.288,0,0,0-2.28-8.348,7.621,7.621,0,0,0,4.468-6.964A1.094,1.094,0,0,0,34.563,126H16.407A16.406,16.406,0,0,0,4.376,153.562v13.564ZM31.466,145.2l3.688,5.532-3.267,1.633a1.094,1.094,0,0,0-.6.978V161H25.813a9.792,9.792,0,0,1-7.83-3.943,1.126,1.126,0,0,0-2.014.661,1.092,1.092,0,0,0,.435.873,12.07,12.07,0,0,0,6.127,4.132v3.307H6.563V158.7a5.478,5.478,0,0,0,4.375-5.359v-2.19a5.44,5.44,0,0,0,3.281,1.1,1.094,1.094,0,0,0,0-2.187,3.285,3.285,0,0,1-3.281-3.281v-2.187a1.094,1.094,0,1,1,2.187,0,1.094,1.094,0,1,0,2.187,0v-5.579a5.486,5.486,0,0,0,4.265-4.265H28a7.723,7.723,0,0,0,1-.066,14.112,14.112,0,0,1,2.28,7.722v2.187a1.094,1.094,0,0,0,.184.607ZM2.189,142.407a14.237,14.237,0,0,1,14.219-14.22H33.361A5.451,5.451,0,0,1,28,132.563H18.595a1.094,1.094,0,0,0-1.094,1.094,3.285,3.285,0,0,1-3.281,3.281,1.094,1.094,0,0,0-1.094,1.094V141.5a3.282,3.282,0,0,0-4.375,3.094v8.75a3.287,3.287,0,0,1-2.187,3.093v-3.314a1.094,1.094,0,0,0-.312-.766,14.139,14.139,0,0,1-4.063-9.951Z" transform="translate(-0.001 -112.22)" fill="#3190cf"/>
  <path id="Path_1317" data-name="Path 1317" d="M379.657,168.22a7.656,7.656,0,0,0,5.469-13.014V131.47a5.469,5.469,0,0,0-10.937,0v23.736a7.656,7.656,0,0,0,5.469,13.014Zm-3.646-11.732a1.094,1.094,0,0,0,.364-.815v-24.2a3.281,3.281,0,0,1,6.563,0v24.2a1.094,1.094,0,0,0,.364.815,5.469,5.469,0,1,1-7.291,0Z" transform="translate(-331.314 -112.22)" fill="#3190cf"/>
  <path id="Path_1318" data-name="Path 1318" d="M415.282,346.423a3.281,3.281,0,0,0,1.094-6.374v-7.954a1.094,1.094,0,0,0-2.187,0v7.954a3.281,3.281,0,0,0,1.094,6.374Zm0-4.375a1.094,1.094,0,1,1-1.094,1.094A1.1,1.1,0,0,1,415.282,342.048Z" transform="translate(-366.939 -294.798)" fill="#3190cf"/>
  <ellipse id="Ellipse_112" data-name="Ellipse 112" cx="1" cy="1.5" rx="1" ry="1.5" transform="translate(47 31)" fill="#3190cf"/>
  <path id="Path_1319" data-name="Path 1319" d="M433.095,176.392a1.094,1.094,0,0,0,1.094-1.094v-8.2a1.094,1.094,0,0,0-2.187,0v8.2A1.094,1.094,0,0,0,433.095,176.392Z" transform="translate(-384.751 -147.845)" fill="#3190cf"/>
</svg>
