<svg id="symptoms-small" xmlns="http://www.w3.org/2000/svg" width="26" height="26" viewBox="0 0 26 26">
  <path id="Path_1311" data-name="Path 1311" d="M207.572,226a.523.523,0,0,0-.431.226,6.167,6.167,0,0,0-1.14,2.392,1.571,1.571,0,0,0,3.142,0,6.168,6.168,0,0,0-1.14-2.392A.524.524,0,0,0,207.572,226Zm0,3.141a.524.524,0,0,1-.524-.523,3.91,3.91,0,0,1,.524-1.125,3.909,3.909,0,0,1,.523,1.124A.524.524,0,0,1,207.572,229.143Z" transform="translate(-195.583 -214.591)" fill="#3190cf"/>
  <path id="Path_1312" data-name="Path 1312" d="M167.572,306a.524.524,0,0,0-.431.226,6.165,6.165,0,0,0-1.14,2.392,1.571,1.571,0,1,0,3.142,0,6.166,6.166,0,0,0-1.14-2.392A.524.524,0,0,0,167.572,306Zm0,3.141a.524.524,0,0,1-.524-.523,3.915,3.915,0,0,1,.524-1.124,3.9,3.9,0,0,1,.524,1.124A.524.524,0,0,1,167.572,309.142Z" transform="translate(-157.606 -290.551)" fill="#3190cf"/>
  <path id="Path_1313" data-name="Path 1313" d="M86.592,5.186a.524.524,0,1,0,.581-.871.735.735,0,0,1,0-1.223,1.8,1.8,0,0,0,.794-1.5,1.8,1.8,0,0,0-.794-1.5.524.524,0,0,0-.581.871.741.741,0,0,1,.327.63.741.741,0,0,1-.327.63,1.782,1.782,0,0,0,0,2.966Z" transform="translate(-81.453 -0.001)" fill="#3190cf"/>
  <path id="Path_1314" data-name="Path 1314" d="M136.592,5.186a.524.524,0,1,0,.581-.871.735.735,0,0,1,0-1.223,1.8,1.8,0,0,0,.794-1.5,1.8,1.8,0,0,0-.794-1.5.524.524,0,0,0-.581.871.741.741,0,0,1,.327.63.741.741,0,0,1-.327.63,1.782,1.782,0,0,0,0,2.966Z" transform="translate(-128.921 -0.001)" fill="#3190cf"/>
  <path id="Path_1315" data-name="Path 1315" d="M186.592,5.186a.524.524,0,0,0,.581-.871.735.735,0,0,1,0-1.223,1.8,1.8,0,0,0,.794-1.5,1.8,1.8,0,0,0-.794-1.5.524.524,0,1,0-.581.871.741.741,0,0,1,.327.63.741.741,0,0,1-.327.63,1.782,1.782,0,0,0,0,2.966Z" transform="translate(-176.389 -0.001)" fill="#3190cf"/>
  <path id="Path_1316" data-name="Path 1316" d="M2.1,145.688a.524.524,0,0,0,.524.524h8.692a.524.524,0,0,0,.524-.524v-1.909c.174.016.348.024.524.024H15.5a.524.524,0,0,0,.524-.524v-3.865l1.8-.9a.524.524,0,0,0,.2-.759l-2.006-3.01v-.889a7.8,7.8,0,0,0-1.092-4,3.648,3.648,0,0,0,2.139-3.334.524.524,0,0,0-.524-.524H7.855A7.854,7.854,0,0,0,2.1,139.195v6.493Zm12.968-10.5,1.765,2.648-1.564.782a.524.524,0,0,0-.289.468v3.665H12.358a4.687,4.687,0,0,1-3.748-1.887.539.539,0,0,0-.964.317.523.523,0,0,0,.208.418,5.778,5.778,0,0,0,2.933,1.978v1.583H3.143v-3.508a2.622,2.622,0,0,0,2.094-2.565v-1.049a2.6,2.6,0,0,0,1.571.525.524.524,0,0,0,0-1.047,1.573,1.573,0,0,1-1.571-1.571V134.9a.524.524,0,1,1,1.047,0,.524.524,0,0,0,1.047,0v-2.671a2.626,2.626,0,0,0,2.042-2.042H13.4a3.7,3.7,0,0,0,.48-.032,6.756,6.756,0,0,1,1.091,3.7V134.9a.524.524,0,0,0,.088.29ZM1.048,133.855a6.815,6.815,0,0,1,6.807-6.807h8.116a2.609,2.609,0,0,1-2.566,2.095H8.9a.524.524,0,0,0-.524.524,1.573,1.573,0,0,1-1.571,1.571.524.524,0,0,0-.524.524v1.66A1.571,1.571,0,0,0,4.19,134.9v4.189a1.573,1.573,0,0,1-1.047,1.481v-1.586a.524.524,0,0,0-.15-.367,6.768,6.768,0,0,1-1.945-4.764Z" transform="translate(-0.001 -120.212)" fill="#3190cf"/>
  <path id="Path_1317" data-name="Path 1317" d="M375.666,146.212a3.665,3.665,0,0,0,2.618-6.23V128.619a2.618,2.618,0,0,0-5.236,0v11.363a3.665,3.665,0,0,0,2.618,6.23Zm-1.745-5.617a.523.523,0,0,0,.174-.39V128.619a1.571,1.571,0,0,1,3.142,0v11.586a.524.524,0,0,0,.174.39,2.618,2.618,0,1,1-3.49,0Z" transform="translate(-353.331 -120.212)" fill="#3190cf"/>
  <path id="Path_1318" data-name="Path 1318" d="M413.572,338.384a1.571,1.571,0,0,0,.524-3.051v-3.808a.524.524,0,0,0-1.047,0v3.808a1.571,1.571,0,0,0,.524,3.051Zm0-2.094a.524.524,0,1,1-.524.524A.524.524,0,0,1,413.572,336.289Z" transform="translate(-391.237 -314.478)" fill="#3190cf"/>
  <ellipse id="Ellipse_112" data-name="Ellipse 112" cx="0.325" cy="0.65" rx="0.325" ry="0.65" transform="translate(21.942 14.476)" fill="#3190cf"/>
  <path id="Path_1319" data-name="Path 1319" d="M432.525,170.975a.524.524,0,0,0,.524-.524v-3.927a.524.524,0,0,0-1.047,0v3.927A.524.524,0,0,0,432.525,170.975Z" transform="translate(-410.19 -157.631)" fill="#3190cf"/>
</svg>
