<svg xmlns="http://www.w3.org/2000/svg" width="28.109" height="28.109" viewBox="0 0 28.109 28.109">
  <g id="icon" transform="translate(-60.182 -10.355)">
    <g id="appointment_" data-name="appointment+" transform="translate(58.509 11)">
      <g id="Group_199" data-name="Group 199" transform="translate(21.691 19.329)">
        <g id="Group_198" data-name="Group 198">
          <path id="Path_1386" data-name="Path 1386" d="M55.132,348.854a.526.526,0,0,0-.743,0l-1.712,1.712-.585-.585a.526.526,0,0,0-.743.743l.957.957a.526.526,0,0,0,.743,0l2.083-2.083A.526.526,0,0,0,55.132,348.854Z" transform="translate(-51.194 -348.7)" fill="#fff" stroke="#fff" stroke-width="0.5"/>
        </g>
      </g>
      <g id="calendar_" data-name="calendar+" transform="translate(1.673 -0.645)">
        <g id="Group_201" data-name="Group 201">
          <g id="Group_200" data-name="Group 200">
            <circle id="Ellipse_122" data-name="Ellipse 122" cx="1.071" cy="1.071" r="1.071" transform="translate(20.128 10.394)" fill="#fff"/>
            <path id="Path_1387" data-name="Path 1387" d="M23.717,2.2H22.289V1.1a1.1,1.1,0,0,0-2.2,0V2.2h-5V1.1a1.1,1.1,0,1,0-2.2,0V2.2H7.961V1.1a1.1,1.1,0,1,0-2.2,0V2.2H4.392A4.4,4.4,0,0,0,0,6.588V23.717a4.4,4.4,0,0,0,4.392,4.392h8.4a1.1,1.1,0,1,0,0-2.2h-8.4a2.2,2.2,0,0,1-2.2-2.2V6.588a2.2,2.2,0,0,1,2.2-2.2H5.765v1.1a1.1,1.1,0,0,0,2.2,0v-1.1H12.9v1.1a1.1,1.1,0,1,0,2.2,0v-1.1h5v1.1a1.1,1.1,0,0,0,2.2,0v-1.1h1.427a2.2,2.2,0,0,1,2.2,2.2v6.259a1.1,1.1,0,1,0,2.2,0V6.588A4.4,4.4,0,0,0,23.717,2.2Z" fill="#fff"/>
            <path id="Path_1388" data-name="Path 1388" d="M276.643,270a6.643,6.643,0,1,0,6.643,6.643A6.65,6.65,0,0,0,276.643,270Zm0,11.09a4.447,4.447,0,1,1,4.447-4.447A4.452,4.452,0,0,1,276.643,281.09Z" transform="translate(-255.177 -255.177)" fill="#fff"/>
            <ellipse id="Ellipse_123" data-name="Ellipse 123" cx="1.168" cy="1.071" rx="1.168" ry="1.071" transform="translate(15.261 10.394)" fill="#fff"/>
            <circle id="Ellipse_124" data-name="Ellipse 124" cx="1.071" cy="1.071" r="1.071" transform="translate(10.589 15.261)" fill="#fff"/>
            <circle id="Ellipse_125" data-name="Ellipse 125" cx="1.071" cy="1.071" r="1.071" transform="translate(5.722 10.394)" fill="#fff"/>
            <circle id="Ellipse_126" data-name="Ellipse 126" cx="1.071" cy="1.071" r="1.071" transform="translate(5.722 15.261)" fill="#fff"/>
            <ellipse id="Ellipse_127" data-name="Ellipse 127" cx="1.071" cy="1.168" rx="1.071" ry="1.168" transform="translate(5.722 19.933)" fill="#fff"/>
            <ellipse id="Ellipse_128" data-name="Ellipse 128" cx="1.071" cy="1.168" rx="1.071" ry="1.168" transform="translate(10.589 19.933)" fill="#fff"/>
            <circle id="Ellipse_129" data-name="Ellipse 129" cx="1.071" cy="1.071" r="1.071" transform="translate(10.589 10.394)" fill="#fff"/>
          </g>
        </g>
      </g>
    </g>
  </g>
</svg>
