<svg xmlns="http://www.w3.org/2000/svg" width="60.037" height="60" viewBox="0 0 60.037 60">
  <g id="take-photo" transform="translate(0 2)">
    <g id="camera" transform="translate(0 -2.159)">
      <g id="XMLID_176_" transform="translate(0 0.159)">
        <path id="XMLID_178_" d="M206.781,211.841a14.69,14.69,0,0,0-5.691,1.136,1.173,1.173,0,0,0,.9,2.164,12.418,12.418,0,1,1-6.69,6.694,1.173,1.173,0,0,0-2.165-.9,14.777,14.777,0,1,0,13.642-9.091Z" transform="translate(-169.491 -187.019)" fill="#e43927"/>
        <path id="XMLID_711_" d="M245.621,275.072a9.615,9.615,0,1,0-9.615-9.615A9.626,9.626,0,0,0,245.621,275.072Zm0-16.886a7.27,7.27,0,1,1-7.27,7.27A7.278,7.278,0,0,1,245.621,258.186Z" transform="translate(-208.332 -225.86)" fill="#e43927"/>
        <path id="XMLID_714_" d="M54.09,107.346H50.523l-4.094-6.929a1.173,1.173,0,0,0-1.009-.576H29.16a1.172,1.172,0,0,0-1.009.576l-4.094,6.929h-6.7v-1.407a4.221,4.221,0,0,0-8.443,0v1.407H5.947A5.954,5.954,0,0,0,0,113.293v28.912a5.954,5.954,0,0,0,5.947,5.947H54.09a5.954,5.954,0,0,0,5.947-5.947V113.293a5.954,5.954,0,0,0-5.947-5.947Zm-24.262-5.159H44.75l3.049,5.159H26.78Zm-18.572,3.752a1.876,1.876,0,0,1,3.752,0v1.407H11.257Zm46.435,36.267a3.606,3.606,0,0,1-3.6,3.6H5.947a3.606,3.606,0,0,1-3.6-3.6V113.293a3.606,3.606,0,0,1,3.6-3.6H54.09a3.606,3.606,0,0,1,3.6,3.6v28.912Z" transform="translate(0 -88.152)" fill="#e43927"/>
        <path id="XMLID_717_" d="M309.179,300.686a2.289,2.289,0,0,1,2.287,2.287,1.173,1.173,0,1,0,2.345,0,4.637,4.637,0,0,0-4.632-4.632,1.173,1.173,0,1,0,0,2.345Z" transform="translate(-271.889 -263.376)" fill="#e43927"/>
        <path id="XMLID_718_" d="M309.179,8.763a1.173,1.173,0,0,0,1.173-1.173V1.332a1.173,1.173,0,1,0-2.345,0V7.59A1.173,1.173,0,0,0,309.179,8.763Z" transform="translate(-271.889 -0.159)" fill="#e43927"/>
        <path id="XMLID_719_" d="M356.764,23.489a1.169,1.169,0,0,0,.829-.343l4.3-4.3a1.173,1.173,0,0,0-1.658-1.658l-4.3,4.3a1.173,1.173,0,0,0,.829,2Z" transform="translate(-313.894 -14.885)" fill="#e43927"/>
        <path id="XMLID_720_" d="M228.377,23.146a1.173,1.173,0,0,0,1.658-1.658l-4.3-4.3a1.173,1.173,0,0,0-1.658,1.658Z" transform="translate(-197.496 -14.886)" fill="#e43927"/>
        <path id="XMLID_730_" d="M83.27,245.841h-6.1a1.173,1.173,0,0,0,0,2.345h6.1a1.173,1.173,0,0,0,0-2.345Z" transform="translate(-67.088 -217.032)" fill="#e43927"/>
        <path id="XMLID_731_" d="M227.133,248.185a1.173,1.173,0,1,0-.829-.344A1.181,1.181,0,0,0,227.133,248.185Z" transform="translate(-199.464 -217.031)" fill="#e43927"/>
      </g>
    </g>
  </g>
</svg>
