<svg xmlns="http://www.w3.org/2000/svg" width="21.776" height="18.368" viewBox="0 0 21.776 18.368">
  <g id="tele-consultation-white" transform="translate(0 -16)">
    <path id="Path_1214" data-name="Path 1214" d="M126.422,168.87a3.046,3.046,0,0,0-3.19-2.87,2.89,2.89,0,1,0,0,5.74A3.046,3.046,0,0,0,126.422,168.87Zm-3.19,1.722a1.736,1.736,0,1,1,0-3.444,1.732,1.732,0,1,1,0,3.444Z" transform="translate(-114.896 -144.26)" fill="#fff"/>
    <path id="Path_1215" data-name="Path 1215" d="M11.568,19.444H1.276v11.48H0v1.722a1.828,1.828,0,0,0,1.914,1.722H19.862a1.828,1.828,0,0,0,1.914-1.722V30.924H20.5V21.74h1.276V16H11.568Zm8.932,13.2a.609.609,0,0,1-.638.574H1.914a.609.609,0,0,1-.638-.574v-.574H20.5Zm-8.932-1.722H5.1V30.35A1.875,1.875,0,0,1,7.06,28.628H9.612a1.875,1.875,0,0,1,1.956,1.722Zm7.656,0h-6.38V30.35a3.08,3.08,0,0,0-3.232-2.87H7.06a3.08,3.08,0,0,0-3.232,2.87v.574H2.552V20.592h9.017v2.651l3.34-1.5h4.315Zm-6.38-13.776H20.5v3.444H14.608l-1.763.793Z" fill="#fff"/>
    <path id="Path_1216" data-name="Path 1216" d="M317,76h1.276v1.148H317Z" transform="translate(-303.518 -57.704)" fill="#fff"/>
    <path id="Path_1217" data-name="Path 1217" d="M377,76h1.276v1.148H377Z" transform="translate(-360.966 -57.704)" fill="#fff"/>
    <path id="Path_1218" data-name="Path 1218" d="M437,76h1.276v1.148H437Z" transform="translate(-418.414 -57.704)" fill="#fff"/>
  </g>
</svg>
