<?xml version="1.0" standalone="no"?>
<!DOCTYPE svg PUBLIC "-//W3C//DTD SVG 20010904//EN"
 "http://www.w3.org/TR/2001/REC-SVG-20010904/DTD/svg10.dtd">
<svg version="1.0" xmlns="http://www.w3.org/2000/svg"
 width="67.000000pt" height="68.000000pt" viewBox="0 0 67.000000 68.000000"
 preserveAspectRatio="xMidYMid meet">
<metadata>
Created by potrace 1.16, written by Peter Selinger 2001-2019
</metadata>
<g transform="translate(0.000000,68.000000) scale(0.100000,-0.100000)"
fill="#000000" stroke="none">
<path d="M580 635 c-25 -26 -53 -45 -66 -45 -12 0 -33 -9 -47 -20 -14 -11 -36
-20 -49 -20 -17 0 -58 -34 -142 -119 -105 -106 -123 -119 -146 -114 -40 7 -48
-23 -15 -57 l25 -26 -48 -47 c-35 -35 -51 -44 -59 -36 -14 14 -33 3 -33 -20 0
-28 98 -131 125 -131 28 0 41 16 26 34 -8 9 2 24 37 59 l48 47 23 -24 c32 -34
65 -24 57 18 -6 29 1 39 109 146 97 97 115 119 115 146 0 18 8 38 20 49 11 10
20 30 20 44 0 17 16 43 45 75 50 54 58 86 22 86 -14 0 -40 -18 -67 -45z m-118
-162 c37 -36 36 -51 -4 -45 -30 5 -31 4 -25 -25 7 -35 0 -48 -18 -33 -18 15
-45 1 -45 -21 0 -10 4 -19 10 -19 5 0 7 -7 4 -15 -5 -11 -10 -12 -25 -2 -27
17 -49 -5 -31 -33 22 -36 -9 -34 -46 3 l-36 36 24 27 c93 103 144 154 153 154
6 0 24 -12 39 -27z"/>
</g>
</svg>
