<svg xmlns="http://www.w3.org/2000/svg" width="23.395" height="14.586" viewBox="0 0 23.395 14.586">
  <path id="video" d="M23.094,97.986a.686.686,0,0,0-.639-.069l-6.4,2.561V98.554A2.156,2.156,0,0,0,13.9,96.4H2.154A2.156,2.156,0,0,0,0,98.554v10.278a2.156,2.156,0,0,0,2.154,2.154H13.9a2.156,2.156,0,0,0,2.154-2.154v-1.924l6.4,2.561a.685.685,0,0,0,.94-.636V98.554a.685.685,0,0,0-.3-.568Zm-8.411,10.846a.784.784,0,0,1-.783.783H2.154a.784.784,0,0,1-.783-.783V98.554a.784.784,0,0,1,.783-.783H13.9a.784.784,0,0,1,.783.783Zm7.342-1.012-5.971-2.388v-3.477l5.971-2.388Z" transform="translate(0 -96.4)" fill="#e43927"/>
</svg>
