<svg xmlns="http://www.w3.org/2000/svg" width="20.339" height="13.075" viewBox="0 0 20.339 13.075">
  <g id="video" transform="translate(0 0)">
    <g id="Group_152" data-name="Group 152" transform="translate(0 0)">
      <g id="Group_151" data-name="Group 151">
        <path id="Path_1298" data-name="Path 1298" d="M19.995,86.894a.726.726,0,0,0-.707-.032l-4.76,2.38v-1.73a2.179,2.179,0,0,0-2.179-2.179H2.179A2.179,2.179,0,0,0,0,87.512v8.717a2.179,2.179,0,0,0,2.179,2.179H12.349a2.179,2.179,0,0,0,2.179-2.179V94.5l4.76,2.384a.726.726,0,0,0,1.051-.654V87.512A.726.726,0,0,0,19.995,86.894Zm-6.92,9.335a.726.726,0,0,1-.726.726H2.179a.726.726,0,0,1-.726-.726V87.512a.726.726,0,0,1,.726-.726H12.349a.726.726,0,0,1,.726.726v8.717Zm5.811-1.175-4.358-2.179V90.867l4.358-2.179Z" transform="translate(0 -85.333)" fill="#fff"/>
      </g>
    </g>
    <g id="Group_154" data-name="Group 154" transform="translate(4.358 3.632)">
      <g id="Group_153" data-name="Group 153" transform="translate(0 0)">
        <path id="Path_1299" data-name="Path 1299" d="M105.306,170.667a2.906,2.906,0,1,0,2.906,2.906A2.906,2.906,0,0,0,105.306,170.667Zm0,4.358a1.453,1.453,0,1,1,1.453-1.453A1.453,1.453,0,0,1,105.306,175.025Z" transform="translate(-102.4 -170.667)" fill="#fff"/>
      </g>
    </g>
  </g>
</svg>
