<svg xmlns="http://www.w3.org/2000/svg" width="23.737" height="26" viewBox="0 0 23.737 26">
  <g id="view-documents" transform="translate(-5.001)">
    <path id="Path_1309" data-name="Path 1309" d="M19.309,5.994a.687.687,0,0,1,.685.685v.6h.6a.685.685,0,1,1,0,1.37h-.6v.6a.685.685,0,0,1-1.37,0v-.6h-.6a.685.685,0,1,1,0-1.37h.6v-.6A.683.683,0,0,1,19.309,5.994Zm4.955-3.053V25.315a.688.688,0,0,1-.685.685H5.686A.687.687,0,0,1,5,25.315V2.942a.686.686,0,0,1,.685-.685h4.495V.685A.686.686,0,0,1,10.865,0H18.4a.688.688,0,0,1,.685.685v1.57h4.495A.687.687,0,0,1,24.264,2.942ZM11.55,4.111h6.164V1.371H11.55Zm11.344-.484h-3.81V4.8a.687.687,0,0,1-.685.685H10.865a.685.685,0,0,1-.685-.685V3.627H6.371v21H22.894Zm-2.14,7.847H8.51a.685.685,0,0,0,0,1.37H20.754a.685.685,0,1,0,0-1.37Zm0,3.169H8.51a.685.685,0,1,0,0,1.37H20.754a.685.685,0,1,0,0-1.37Zm0,3.168H8.51a.685.685,0,0,0,0,1.37H20.754a.685.685,0,0,0,0-1.37Zm0,3.168H8.51a.685.685,0,1,0,0,1.37H20.754a.685.685,0,1,0,0-1.37Zm6.56-10.541a1.423,1.423,0,0,0-1.423,1.423V22.854a1.4,1.4,0,0,0,.738,1.223v1.239a.685.685,0,0,0,1.37,0V24.076a1.4,1.4,0,0,0,.738-1.223V11.86A1.425,1.425,0,0,0,27.314,10.437Z" fill="#fff"/>
  </g>
</svg>
