<svg xmlns="http://www.w3.org/2000/svg" width="30" height="19.336" viewBox="0 0 30 19.336">
  <g id="view-red" transform="translate(0 -91)">
    <g id="Group_162" data-name="Group 162" transform="translate(0 91)">
      <g id="Group_161" data-name="Group 161">
        <path id="Path_1347" data-name="Path 1347" d="M29.833,100.153a27.87,27.87,0,0,0-4.462-4.692C22.414,92.98,18.862,91,15,91c-3.921,0-7.583,2.063-10.545,4.607a29.265,29.265,0,0,0-4.288,4.546.879.879,0,0,0,0,1.03A27.267,27.267,0,0,0,4.16,105.49c2.847,2.49,6.7,4.846,10.84,4.846,3.728,0,7.134-1.835,10.019-4.174a27.679,27.679,0,0,0,4.814-4.979A.879.879,0,0,0,29.833,100.153Zm-5.81,4.556c-2.4,1.986-5.587,3.868-9.023,3.868-3.458,0-6.905-1.966-9.726-4.461a28.4,28.4,0,0,1-3.283-3.449,29.322,29.322,0,0,1,3.341-3.491C7.794,95,11.246,92.758,15,92.758c3.269,0,6.528,1.756,9.258,4.057a28.166,28.166,0,0,1,3.751,3.853A29.1,29.1,0,0,1,24.024,104.709Z" transform="translate(0 -91)" fill="#e43927"/>
      </g>
    </g>
    <g id="Group_164" data-name="Group 164" transform="translate(8.848 94.516)">
      <g id="Group_163" data-name="Group 163" transform="translate(0 0)">
        <path id="Path_1348" data-name="Path 1348" d="M157.153,151a6.152,6.152,0,1,0,6.152,6.152A6.159,6.159,0,0,0,157.153,151Zm0,10.547a4.394,4.394,0,1,1,4.394-4.394A4.4,4.4,0,0,1,157.153,161.547Z" transform="translate(-151.001 -151)" fill="#e43927"/>
      </g>
    </g>
    <g id="Group_166" data-name="Group 166" transform="translate(12.363 98.031)">
      <g id="Group_165" data-name="Group 165" transform="translate(0 0)">
        <path id="Path_1349" data-name="Path 1349" d="M213.638,211a2.637,2.637,0,1,0,2.637,2.637A2.64,2.64,0,0,0,213.638,211Zm0,3.516a.879.879,0,1,1,.879-.879A.88.88,0,0,1,213.638,214.516Z" transform="translate(-211.001 -211)" fill="#e43927"/>
      </g>
    </g>
  </g>
</svg>
