<svg xmlns="http://www.w3.org/2000/svg" width="32.354" height="20.171" viewBox="0 0 32.354 20.171">
  <path id="view-video" d="M31.938,98.594a.948.948,0,0,0-.883-.1L22.2,102.04V99.378A2.982,2.982,0,0,0,19.223,96.4H2.979A2.982,2.982,0,0,0,0,99.378v14.214a2.982,2.982,0,0,0,2.979,2.978H19.223a2.982,2.982,0,0,0,2.978-2.978v-2.661l8.853,3.541a.948.948,0,0,0,1.3-.88V99.378A.948.948,0,0,0,31.938,98.594Zm-11.632,15a1.084,1.084,0,0,1-1.083,1.083H2.979A1.084,1.084,0,0,1,1.9,113.593V99.378A1.084,1.084,0,0,1,2.979,98.3H19.223a1.084,1.084,0,0,1,1.083,1.083Zm10.153-1.4-8.257-3.3v-4.808l8.257-3.3Z" transform="translate(0 -96.4)" fill="#e43927"/>
</svg>
