<svg xmlns="http://www.w3.org/2000/svg" width="22.762" height="14.671" viewBox="0 0 22.762 14.671">
  <g id="view" opacity="0.4">
    <g id="Group_5" data-name="Group 5" transform="translate(0 0)">
      <g id="Group_4" data-name="Group 4">
        <path id="Path_3" data-name="Path 3" d="M22.636,97.945a21.146,21.146,0,0,0-3.385-3.56C17.007,92.5,14.311,91,11.381,91c-2.975,0-5.754,1.566-8,3.5a22.2,22.2,0,0,0-3.253,3.45.667.667,0,0,0,0,.781,20.688,20.688,0,0,0,3.03,3.268c2.16,1.889,5.087,3.677,8.225,3.677a12.354,12.354,0,0,0,7.6-3.167,21,21,0,0,0,3.652-3.778A.667.667,0,0,0,22.636,97.945ZM18.228,101.4a11.235,11.235,0,0,1-6.846,2.935c-2.624,0-5.239-1.491-7.38-3.385a21.548,21.548,0,0,1-2.491-2.617,22.248,22.248,0,0,1,2.535-2.649c1.868-1.649,4.487-3.353,7.335-3.353,2.48,0,4.953,1.333,7.024,3.078a21.37,21.37,0,0,1,2.846,2.924A22.075,22.075,0,0,1,18.228,101.4Z" transform="translate(0 -91)"/>
      </g>
    </g>
    <g id="Group_7" data-name="Group 7" transform="translate(6.713 2.667)">
      <g id="Group_6" data-name="Group 6" transform="translate(0 0)">
        <path id="Path_4" data-name="Path 4" d="M155.669,151a4.668,4.668,0,1,0,4.668,4.668A4.673,4.673,0,0,0,155.669,151Zm0,8A3.334,3.334,0,1,1,159,155.668,3.338,3.338,0,0,1,155.669,159Z" transform="translate(-151.001 -151)"/>
      </g>
    </g>
    <g id="Group_9" data-name="Group 9" transform="translate(9.381 5.335)">
      <g id="Group_8" data-name="Group 8" transform="translate(0 0)">
        <path id="Path_5" data-name="Path 5" d="M213,211a2,2,0,1,0,2,2A2,2,0,0,0,213,211Zm0,2.667a.667.667,0,1,1,.667-.667A.668.668,0,0,1,213,213.667Z" transform="translate(-211.001 -211)"/>
      </g>
    </g>
  </g>
</svg>
