<svg xmlns="http://www.w3.org/2000/svg" width="30.876" height="30.876" viewBox="0 0 30.876 30.876">
  <g id="weight" transform="translate(-2 -2)">
    <path id="Path_1294" data-name="Path 1294" d="M27.362,2H7.514A5.514,5.514,0,0,0,2,7.514V27.362a5.514,5.514,0,0,0,5.514,5.514H27.362a5.514,5.514,0,0,0,5.514-5.514V7.514A5.514,5.514,0,0,0,27.362,2ZM30.67,27.362a3.308,3.308,0,0,1-3.308,3.308H7.514a3.308,3.308,0,0,1-3.308-3.308V7.514A3.308,3.308,0,0,1,7.514,4.205H27.362A3.308,3.308,0,0,1,30.67,7.514ZM28.222,11.726a16.265,16.265,0,0,0-5.58-4.212,13.232,13.232,0,0,0-10.421,0,16.331,16.331,0,0,0-5.514,4.245,1.111,1.111,0,0,0,.176,1.555l4.962,3.915a1.037,1.037,0,0,0,.871.221,1.1,1.1,0,0,0,.75-.507,4.742,4.742,0,0,1,3.97-2.448,4.742,4.742,0,0,1,4.025,2.415,1.1,1.1,0,0,0,.75.507.518.518,0,0,0,.187,0,1.1,1.1,0,0,0,.684-.243l4.962-3.915a1.088,1.088,0,0,0,.176-1.533ZM22.61,14.758a6.815,6.815,0,0,0-4.069-2.36V10.822a1.1,1.1,0,0,0-2.205,0V12.4a6.815,6.815,0,0,0-4.069,2.36L9.123,12.277A14.093,14.093,0,0,1,13.1,9.509a11.027,11.027,0,0,1,8.667,0,14.093,14.093,0,0,1,3.981,2.768Z" fill="#e43927"/>
  </g>
</svg>
